<svg width="165" height="174" viewBox="0 0 165 174" fill="none" xmlns="http://www.w3.org/2000/svg">
<path d="M158.729 2C160.79 7.26697 162.181 11.4463 162.769 15.7441C163.357 20.0496 163.135 24.4474 162.012 30.1572L162.008 30.1768C160.761 35.3813 159.329 39.2996 157.016 42.8896C154.705 46.4764 151.533 49.707 146.852 53.5654L146.796 53.6104L146.73 53.6387C130.875 60.4571 119.005 60.8013 104.286 58.8398C116.974 70.0651 125.027 86.8194 125.027 105.536C125.027 139.334 98.7689 166.731 66.3779 166.731C48.7159 166.731 32.8773 158.585 22.125 145.697L9.46973 168.336L8.86719 169.413L8.5498 168.221L2.0332 143.742L2 143.617L2.03223 143.491L8.54883 117.653L8.73828 116.897C8.0759 113.216 7.72854 109.418 7.72852 105.536C7.72868 78.767 24.2018 56.0123 47.1475 47.7061C57.7015 40.409 68.7265 34.6994 85.1279 29.583L85.1514 29.5762L85.1748 29.5713C96.8291 27.1279 106.015 25.6969 115.384 25.5947C124.685 25.4934 134.146 26.7029 146.368 29.5107C151.595 24.1387 154.525 19.9819 156.111 15.8779C157.715 11.7281 157.967 7.58486 157.764 2.20117L158.729 2Z" fill="white"/>
<path d="M158.729 2L160.125 1.45327L159.663 0.272838L158.422 0.531579L158.729 2ZM162.769 15.7441L164.255 15.541V15.541L162.769 15.7441ZM162.012 30.1572L163.483 30.4514L163.483 30.4468L162.012 30.1572ZM162.008 30.1768L163.467 30.5262L163.473 30.4987L163.479 30.4709L162.008 30.1768ZM157.016 42.8896L158.277 43.7021L158.277 43.7021L157.016 42.8896ZM146.852 53.5654L147.794 54.7327L147.8 54.7279L147.806 54.723L146.852 53.5654ZM146.796 53.6104L147.392 54.9869L147.579 54.9058L147.738 54.7776L146.796 53.6104ZM146.73 53.6387L147.323 55.0167L147.326 55.0153L146.73 53.6387ZM104.286 58.8398L104.484 57.353L99.6072 56.7031L103.292 59.9633L104.286 58.8398ZM125.027 105.536L126.527 105.536V105.536L125.027 105.536ZM66.3779 166.731L66.3779 168.231H66.3779V166.731ZM22.125 145.697L23.2768 144.736L21.8798 143.062L20.8157 144.965L22.125 145.697ZM9.46973 168.336L10.7788 169.068L10.779 169.068L9.46973 168.336ZM8.86719 169.413L7.41766 169.799L8.36958 173.375L10.1763 170.145L8.86719 169.413ZM8.5498 168.221L9.99933 167.835L9.99932 167.835L8.5498 168.221ZM2.0332 143.742L0.583475 144.127L0.583689 144.128L2.0332 143.742ZM2 143.617L0.546796 143.245L0.449876 143.624L0.550272 144.002L2 143.617ZM2.03223 143.491L3.48544 143.863L3.48668 143.858L2.03223 143.491ZM8.54883 117.653L10.0033 118.02L10.0038 118.018L8.54883 117.653ZM8.73828 116.897L10.1933 117.262L10.2717 116.949L10.2146 116.632L8.73828 116.897ZM7.72852 105.536L6.22852 105.536V105.536L7.72852 105.536ZM47.1475 47.7061L47.658 49.1165L47.8407 49.0504L48.0005 48.9399L47.1475 47.7061ZM85.1279 29.583L84.7079 28.143L84.6945 28.1469L84.6812 28.1511L85.1279 29.583ZM85.1514 29.5762L84.8454 28.1077L84.7878 28.1197L84.7314 28.1362L85.1514 29.5762ZM85.1748 29.5713L85.4807 31.0398L85.4826 31.0394L85.1748 29.5713ZM115.384 25.5947L115.367 24.0948H115.367L115.384 25.5947ZM146.368 29.5107L146.032 30.9727L146.855 31.1616L147.443 30.5567L146.368 29.5107ZM156.111 15.8779L157.51 16.4188V16.4187L156.111 15.8779ZM157.764 2.20117L157.458 0.732751L156.217 0.991413L156.265 2.25777L157.764 2.20117ZM158.729 2L157.332 2.54673C159.384 7.79012 160.72 11.8332 161.282 15.9473L162.769 15.7441L164.255 15.541C163.642 11.0594 162.196 6.74381 160.125 1.45327L158.729 2ZM162.769 15.7441L161.282 15.9472C161.843 20.0463 161.641 24.2718 160.54 29.8676L162.012 30.1572L163.483 30.4468C164.629 24.623 164.871 20.053 164.255 15.541L162.769 15.7441ZM162.012 30.1572L160.541 29.8631L160.537 29.8826L162.008 30.1768L163.479 30.4709L163.483 30.4514L162.012 30.1572ZM162.008 30.1768L160.549 29.8273C159.323 34.9439 157.942 38.683 155.755 42.0772L157.016 42.8896L158.277 43.7021C160.716 39.9163 162.199 35.8187 163.467 30.5262L162.008 30.1768ZM157.016 42.8896L155.755 42.0772C153.564 45.4777 150.525 48.5939 145.898 52.4079L146.852 53.5654L147.806 54.723C152.541 50.8202 155.845 47.4752 158.277 43.7021L157.016 42.8896ZM146.852 53.5654L145.91 52.3981L145.854 52.4431L146.796 53.6104L147.738 54.7776L147.794 54.7327L146.852 53.5654ZM146.796 53.6104L146.2 52.2338L146.135 52.2621L146.73 53.6387L147.326 55.0153L147.392 54.9869L146.796 53.6104ZM146.73 53.6387L146.138 52.2607C130.594 58.9451 119.011 59.2889 104.484 57.353L104.286 58.8398L104.088 60.3267C118.999 62.3137 131.156 61.969 147.323 55.0167L146.73 53.6387ZM104.286 58.8398L103.292 59.9633C115.663 70.9079 123.527 87.2551 123.527 105.536L125.027 105.536L126.527 105.536C126.527 86.3836 118.285 69.2223 105.28 57.7164L104.286 58.8398ZM125.027 105.536L123.527 105.536C123.527 138.566 97.881 165.231 66.3779 165.231V166.731V168.231C99.6567 168.231 126.527 140.101 126.527 105.536L125.027 105.536ZM66.3779 166.731L66.3779 165.231C49.1919 165.231 33.7646 157.307 23.2768 144.736L22.125 145.697L20.9732 146.658C31.9899 159.863 48.2399 168.231 66.3779 168.231L66.3779 166.731ZM22.125 145.697L20.8157 144.965L8.16042 167.604L9.46973 168.336L10.779 169.068L23.4343 146.429L22.125 145.697ZM9.46973 168.336L8.16062 167.604L7.55808 168.681L8.86719 169.413L10.1763 170.145L10.7788 169.068L9.46973 168.336ZM8.86719 169.413L10.3167 169.027L9.99933 167.835L8.5498 168.221L7.10028 168.607L7.41766 169.799L8.86719 169.413ZM8.5498 168.221L9.99932 167.835L3.48272 143.356L2.0332 143.742L0.583689 144.128L7.10029 168.607L8.5498 168.221ZM2.0332 143.742L3.48293 143.357L3.44973 143.232L2 143.617L0.550272 144.002L0.583475 144.127L2.0332 143.742ZM2 143.617L3.4532 143.989L3.48543 143.863L2.03223 143.491L0.579023 143.119L0.546796 143.245L2 143.617ZM2.03223 143.491L3.48668 143.858L10.0033 118.02L8.54883 117.653L7.09437 117.286L0.577773 143.124L2.03223 143.491ZM8.54883 117.653L10.0038 118.018L10.1933 117.262L8.73828 116.897L7.28329 116.533L7.09384 117.289L8.54883 117.653ZM8.73828 116.897L10.2146 116.632C9.56787 113.038 9.22854 109.329 9.22852 105.536L7.72852 105.536L6.22852 105.536C6.22854 109.508 6.58393 113.395 7.26199 117.163L8.73828 116.897ZM7.72852 105.536L9.22852 105.536C9.22868 79.3855 25.3184 57.2033 47.658 49.1165L47.1475 47.7061L46.6369 46.2956C23.0851 54.8213 6.22869 78.1485 6.22852 105.536L7.72852 105.536ZM47.1475 47.7061L48.0005 48.9399C58.4282 41.7302 69.3159 36.0869 85.5746 31.015L85.1279 29.583L84.6812 28.1511C68.137 33.312 56.9748 39.0879 46.2944 46.4722L47.1475 47.7061ZM85.1279 29.583L85.5479 31.023L85.5714 31.0162L85.1514 29.5762L84.7314 28.1362L84.7079 28.143L85.1279 29.583ZM85.1514 29.5762L85.4573 31.0446L85.4807 31.0398L85.1748 29.5713L84.8689 28.1028L84.8454 28.1077L85.1514 29.5762ZM85.1748 29.5713L85.4826 31.0394C97.103 28.6031 106.177 27.1952 115.4 27.0946L115.384 25.5947L115.367 24.0948C105.853 24.1985 96.5552 25.6527 84.867 28.1032L85.1748 29.5713ZM115.384 25.5947L115.4 27.0946C124.548 26.995 133.886 28.1824 146.032 30.9727L146.368 29.5107L146.704 28.0488C134.406 25.2235 124.822 23.9918 115.367 24.0948L115.384 25.5947ZM146.368 29.5107L147.443 30.5567C152.733 25.1196 155.82 20.7929 157.51 16.4188L156.111 15.8779L154.712 15.3371C153.23 19.1709 150.456 23.1577 145.293 28.4648L146.368 29.5107ZM156.111 15.8779L157.51 16.4187C159.225 11.9822 159.468 7.59425 159.263 2.14458L157.764 2.20117L156.265 2.25777C156.466 7.57547 156.206 11.4739 154.712 15.3371L156.111 15.8779ZM157.764 2.20117L158.07 3.66959L159.035 3.46842L158.729 2L158.422 0.531579L157.458 0.732751L157.764 2.20117Z" fill="black"/>
<ellipse cx="68.5342" cy="104.821" rx="23" ry="24" fill="black" stroke="white" stroke-width="3"/>
</svg>
