<svg width="57" height="57" viewBox="0 0 57 57" fill="none" xmlns="http://www.w3.org/2000/svg">
<path d="M24.0256 38.7278C24.0256 41.0007 23.23 42.9043 21.639 44.4385C20.048 45.9727 18.0592 46.7398 15.6727 46.7398C13.3998 46.7398 11.4678 45.859 9.87678 44.0975C8.28575 42.336 7.49023 40.12 7.49023 37.4493C7.49023 35.5173 7.9164 33.3865 8.76874 31.0568C9.6779 28.7271 10.8428 26.3689 12.2633 23.9824C13.7407 21.5958 15.3886 19.2377 17.2069 16.908C19.082 14.5214 20.9572 12.3054 22.8323 10.2598L25.1336 12.1349C22.5766 15.1465 20.4457 18.1865 18.7411 21.2549C17.0364 24.3233 16.0136 27.3349 15.6727 30.2897C17.9456 30.4601 19.9059 31.3125 21.5538 32.8467C23.2016 34.3809 24.0256 36.3413 24.0256 38.7278ZM48.4876 38.7278C48.4876 41.0007 47.6921 42.9043 46.1011 44.4385C44.51 45.9727 42.5213 46.7398 40.1347 46.7398C37.8618 46.7398 35.9299 45.859 34.3388 44.0975C32.7478 42.336 31.9523 40.12 31.9523 37.4493C31.9523 35.5173 32.3785 33.3865 33.2308 31.0568C34.14 28.7271 35.3048 26.3689 36.7254 23.9824C38.2028 21.5958 39.8506 19.2377 41.6689 16.908C43.5441 14.5214 45.4192 12.3054 47.2943 10.2598L49.5104 12.1349C46.9534 15.1465 44.8226 18.1865 43.1179 21.2549C41.47 24.3233 40.4757 27.3349 40.1347 30.2897C42.4076 30.4601 44.368 31.3125 46.0158 32.8467C47.6637 34.3809 48.4876 36.3413 48.4876 38.7278Z" fill="#4F9351"/>
</svg>
