<svg width="84" height="84" viewBox="0 0 84 84" fill="none" xmlns="http://www.w3.org/2000/svg">
<circle cx="42" cy="42" r="42" fill="#4F9351"/>
<path d="M17 40L23 34M23 34L44 13L65 34M23 34V64C23 64.7956 23.3161 65.5587 23.8787 66.1213C24.4413 66.6839 25.2044 67 26 67H35M65 34L71 40M65 34V64C65 64.7956 64.6839 65.5587 64.1213 66.1213C63.5587 66.6839 62.7956 67 62 67H53M35 67C35.7956 67 36.5587 66.6839 37.1213 66.1213C37.6839 65.5587 38 64.7956 38 64V52C38 51.2044 38.3161 50.4413 38.8787 49.8787C39.4413 49.3161 40.2044 49 41 49H47C47.7956 49 48.5587 49.3161 49.1213 49.8787C49.6839 50.4413 50 51.2044 50 52V64C50 64.7956 50.3161 65.5587 50.8787 66.1213C51.4413 66.6839 52.2044 67 53 67M35 67H53" stroke="white" stroke-width="1.33333" stroke-linecap="round" stroke-linejoin="round"/>
</svg>
