<svg width="84" height="84" viewBox="0 0 84 84" fill="none" xmlns="http://www.w3.org/2000/svg">
<circle cx="42" cy="42" r="42" fill="#4F9351"/>
<path fill-rule="evenodd" clip-rule="evenodd" d="M23.418 33.4931C24.227 32.9538 25.32 33.1724 25.8594 33.9814L29.0893 38.8262L32.3192 33.9814C32.8586 33.1724 33.9517 32.9538 34.7607 33.4931C35.262 33.8273 35.5366 34.3741 35.5447 34.9342C35.5527 34.3741 35.8273 33.8273 36.3286 33.4931C37.1376 32.9538 38.2308 33.1724 38.77 33.9814L42 38.8262L45.23 33.9814C45.7692 33.1724 46.8624 32.9538 47.6713 33.4931C48.1727 33.8273 48.4473 34.3741 48.4553 34.9342C48.4633 34.3741 48.738 33.8273 49.2394 33.4931C50.0483 32.9538 51.1415 33.1724 51.6807 33.9814L54.9107 38.8262L58.1407 33.9814C58.6799 33.1724 59.7731 32.9538 60.582 33.4931C61.3911 34.0325 61.6097 35.1255 61.0702 35.9346L57.0266 42.0001L61.0702 48.0657C61.6097 48.8746 61.3911 49.9678 60.582 50.507C59.7731 51.0464 58.6799 50.8278 58.1407 50.0187L54.9107 45.174L51.6807 50.0187C51.1415 50.8278 50.0483 51.0464 49.2394 50.507C48.738 50.1729 48.4633 49.626 48.4553 49.0659C48.4473 49.626 48.1727 50.1729 47.6713 50.507C46.8624 51.0464 45.7692 50.8278 45.23 50.0187L42 45.174L38.77 50.0187C38.2308 50.8278 37.1376 51.0464 36.3286 50.507C35.8273 50.1729 35.5527 49.626 35.5447 49.0659C35.5366 49.626 35.262 50.1729 34.7607 50.507C33.9517 51.0464 32.8586 50.8278 32.3192 50.0187L29.0893 45.174L25.8594 50.0187C25.32 50.8278 24.227 51.0464 23.418 50.507C22.6089 49.9678 22.3903 48.8746 22.9297 48.0657L26.9734 42.0001L22.9297 35.9346C22.3903 35.1255 22.6089 34.0325 23.418 33.4931ZM31.2052 42.0001L35.249 48.0657C35.444 48.3582 35.5399 48.688 35.5447 49.0152C35.5494 48.688 35.6453 48.3582 35.8403 48.0657L39.884 42.0001L35.8403 35.9346C35.6453 35.642 35.5494 35.3123 35.5447 34.985C35.5399 35.3123 35.444 35.642 35.249 35.9346L31.2052 42.0001ZM44.1159 42.0001L48.1596 48.0657C48.3546 48.3582 48.4506 48.688 48.4553 49.0152C48.46 48.688 48.556 48.3582 48.7511 48.0657L52.7947 42.0001L48.7511 35.9346C48.556 35.642 48.46 35.3122 48.4553 34.985C48.4506 35.3122 48.3546 35.642 48.1596 35.9346L44.1159 42.0001Z" fill="white"/>
<path fill-rule="evenodd" clip-rule="evenodd" d="M41.8665 17H42.1335C47.5019 17 51.7088 17 54.9914 17.4413C58.3512 17.893 61.0026 18.8357 63.0835 20.9166C65.8456 23.6788 66.613 27.4605 66.8698 32.6108C66.9177 33.5729 66.1765 34.3917 65.2144 34.4397C64.2523 34.4877 63.4335 33.7466 63.3856 32.7845C63.1337 27.7328 62.3837 25.1501 60.6167 23.3833C59.2919 22.0585 57.4995 21.2983 54.5265 20.8985C51.5033 20.4921 47.5307 20.4884 42 20.4884C36.4692 20.4884 32.4967 20.4921 29.4734 20.8985C26.5004 21.2983 24.708 22.0585 23.3833 23.3833C22.0585 24.708 21.2983 26.5004 20.8985 29.4734C20.4921 32.4967 20.4884 36.4692 20.4884 42C20.4884 47.5307 20.4921 51.5033 20.8985 54.5265C21.2983 57.4995 22.0585 59.2919 23.3833 60.6167C24.708 61.9416 26.5004 62.7019 29.4734 63.1014C32.4967 63.5079 36.4692 63.5116 42 63.5116C47.5307 63.5116 51.5033 63.5079 54.5265 63.1014C57.4995 62.7019 59.2919 61.9416 60.6167 60.6167C61.9416 59.2919 62.7019 57.4995 63.1014 54.5265C63.5079 51.5033 63.5116 47.5307 63.5116 42C63.5116 41.0367 64.2926 40.2558 65.2558 40.2558C66.2191 40.2558 67 41.0367 67 42V42.1335C67 47.5019 67 51.7088 66.5588 54.9914C66.107 58.3512 65.1644 61.0026 63.0835 63.0835C61.0026 65.1644 58.3512 66.107 54.9914 66.5588C51.7088 67 47.5019 67 42.1335 67H41.8665C36.4982 67 32.2911 67 29.0086 66.5588C25.6488 66.107 22.9976 65.1644 20.9166 63.0835C18.8357 61.0026 17.893 58.3512 17.4413 54.9914C17 51.7088 17 47.5019 17 42.1335V41.8665C17 36.4982 17 32.2911 17.4413 29.0086C17.893 25.6488 18.8357 22.9976 20.9166 20.9166C22.9976 18.8357 25.6488 17.893 29.0086 17.4413C32.2911 17 36.4982 17 41.8665 17Z" fill="white"/>
</svg>
