<svg width="84" height="84" viewBox="0 0 84 84" fill="none" xmlns="http://www.w3.org/2000/svg">
<circle cx="42" cy="42" r="42" fill="#4F9351"/>
<path d="M19 37.8125H67M24.3333 37.8125V27.0625C24.3333 24.9242 25.1762 22.8735 26.6765 21.3615C28.1768 19.8494 30.2116 19 32.3333 19H53.6667C55.7884 19 57.8232 19.8494 59.3235 21.3615C60.8238 22.8735 61.6667 24.9242 61.6667 27.0625V37.8125M37.6667 53.9375C37.6667 54.9963 37.4597 56.0447 37.0577 57.0229C36.6557 58.0011 36.0664 58.8899 35.3235 59.6385C34.5807 60.3872 33.6987 60.9811 32.7281 61.3863C31.7575 61.7915 30.7172 62 29.6667 62C28.6161 62 27.5758 61.7915 26.6052 61.3863C25.6346 60.9811 24.7527 60.3872 24.0098 59.6385C23.2669 58.8899 22.6777 58.0011 22.2756 57.0229C21.8736 56.0447 21.6667 54.9963 21.6667 53.9375C21.6667 52.8787 21.8736 51.8303 22.2756 50.8521C22.6777 49.8739 23.2669 48.9851 24.0098 48.2365C24.7527 47.4878 25.6346 46.8939 26.6052 46.4887C27.5758 46.0835 28.6161 45.875 29.6667 45.875C30.7172 45.875 31.7575 46.0835 32.7281 46.4887C33.6987 46.8939 34.5807 47.4878 35.3235 48.2365C36.0664 48.9851 36.6557 49.8739 37.0577 50.8521C37.4597 51.8303 37.6667 52.8787 37.6667 53.9375ZM37.6667 53.9375H48.3333M48.3333 53.9375C48.3333 56.0758 49.1762 58.1265 50.6765 59.6385C52.1768 61.1506 54.2116 62 56.3333 62C58.4551 62 60.4899 61.1506 61.9902 59.6385C63.4905 58.1265 64.3333 56.0758 64.3333 53.9375C64.3333 51.7992 63.4905 49.7485 61.9902 48.2365C60.4899 46.7244 58.4551 45.875 56.3333 45.875C54.2116 45.875 52.1768 46.7244 50.6765 48.2365C49.1762 49.7485 48.3333 51.7992 48.3333 53.9375Z" stroke="white" stroke-width="1.33333" stroke-linecap="round" stroke-linejoin="round"/>
</svg>
