<svg width="84" height="84" viewBox="0 0 84 84" fill="none" xmlns="http://www.w3.org/2000/svg">
<circle cx="42" cy="42" r="42" fill="#4F9351"/>
<path d="M24 42H34M24 42C24 51.9411 32.0589 60 42 60M24 42C24 32.0589 32.0589 24 42 24M34 42H50M34 42C34 51.9411 37.5817 60 42 60M34 42C34 32.0589 37.5817 24 42 24M50 42H60M50 42C50 32.0589 46.4183 24 42 24M50 42C50 51.9411 46.4183 60 42 60M60 42C60 32.0589 51.9411 24 42 24M60 42C60 51.9411 51.9411 60 42 60" stroke="white" stroke-width="2" stroke-linecap="round" stroke-linejoin="round"/>
</svg>
