<svg width="84" height="84" viewBox="0 0 84 84" fill="none" xmlns="http://www.w3.org/2000/svg">
<circle cx="42" cy="42" r="42" fill="#4F9351"/>
<path d="M53.8333 60.5C53.8333 54.5169 48.9831 49.6667 43 49.6667C37.0169 49.6667 32.1667 54.5169 32.1667 60.5M53.8333 60.5H55.5734C57.9955 60.5 59.2067 60.5 60.1327 60.0282C60.9481 59.6127 61.6127 58.9481 62.0282 58.1327C62.5 57.2067 62.5 55.9955 62.5 53.5734V28.4266C62.5 26.0045 62.5 24.7916 62.0282 23.8656C61.6127 23.0502 60.9481 22.3878 60.1327 21.9723C59.2057 21.5 57.994 21.5 55.5671 21.5H30.4338C28.0069 21.5 26.7925 21.5 25.8656 21.9723C25.0502 22.3878 24.3878 23.0502 23.9723 23.8656C23.5 24.7925 23.5 26.0069 23.5 28.4338V53.5671C23.5 55.994 23.5 57.2057 23.9723 58.1327C24.3878 58.9481 25.0502 59.6127 25.8656 60.0282C26.7916 60.5 28.0045 60.5 30.4266 60.5H32.1667M53.8333 60.5H32.1667M43 43.1667C39.4101 43.1667 36.5 40.2565 36.5 36.6667C36.5 33.0768 39.4101 30.1667 43 30.1667C46.5899 30.1667 49.5 33.0768 49.5 36.6667C49.5 40.2565 46.5899 43.1667 43 43.1667Z" stroke="white" stroke-width="2" stroke-linecap="round" stroke-linejoin="round"/>
</svg>
