<svg width="84" height="84" viewBox="0 0 84 84" fill="none" xmlns="http://www.w3.org/2000/svg">
<circle cx="42" cy="42" r="42" fill="#4F9351"/>
<path d="M49.7222 34.2778L53.8333 30.1667M53.8333 30.1667L57.9444 26.0556M53.8333 30.1667L49.7222 26.0556M53.8333 30.1667L57.9444 34.2778M27.1111 24C26.0208 24 24.9751 24.4331 24.2041 25.2041C23.4331 25.9751 23 27.0208 23 28.1111V30.1667C23 47.1949 36.8051 61 53.8333 61H55.8889C56.9792 61 58.0249 60.5669 58.7959 59.7959C59.5669 59.0249 60 57.9792 60 56.8889V50.1467C59.9997 49.7154 59.8637 49.2952 59.6114 48.9455C59.3591 48.5958 59.0031 48.3343 58.594 48.198L49.3584 45.1188C48.889 44.9628 48.3791 44.9812 47.9223 45.1707C47.4654 45.3603 47.0922 45.7082 46.8712 46.1507L44.5484 50.7901C39.5147 48.5158 35.4833 44.4837 33.2099 39.4496L37.8493 37.1309C38.2918 36.9098 38.6397 36.5366 38.8293 36.0798C39.0188 35.6229 39.0372 35.113 38.8812 34.6437L35.802 25.4039C35.6653 24.9949 35.4033 24.6391 35.0532 24.3872C34.7031 24.1352 34.2826 23.9998 33.8513 24H27.1111Z" stroke="white" stroke-width="1.33333" stroke-linecap="round" stroke-linejoin="round"/>
</svg>
