<svg width="23" height="22" viewBox="0 0 23 22" fill="none" xmlns="http://www.w3.org/2000/svg">
<path d="M21.4235 9.12699C21.4427 8.9969 21.4361 8.86428 21.4041 8.73674C21.372 8.6092 21.3151 8.48923 21.2366 8.38371C21.1581 8.27819 21.0596 8.18919 20.9467 8.1218C20.8337 8.05441 20.7086 8.00996 20.5785 7.99099L14.9275 7.16499L12.4015 2.01799C12.3103 1.86067 12.1793 1.73008 12.0218 1.63934C11.8642 1.54859 11.6855 1.50088 11.5037 1.50098C11.3218 1.50108 11.1432 1.54899 10.9857 1.63991C10.8283 1.73083 10.6975 1.86157 10.6065 2.01899L8.08147 7.16499L2.43047 7.99099C2.24601 8.01779 2.07272 8.0956 1.93014 8.21565C1.78755 8.3357 1.68136 8.49321 1.62355 8.67041C1.56573 8.84761 1.55859 9.03744 1.60292 9.21848C1.64726 9.39952 1.74131 9.56457 1.87447 9.69499L5.96747 13.708L5.00147 19.372C4.97093 19.5558 4.99227 19.7445 5.06307 19.9169C5.13388 20.0893 5.25136 20.2385 5.4023 20.3478C5.55325 20.4571 5.73168 20.5221 5.91755 20.5356C6.10341 20.549 6.28935 20.5104 6.45447 20.424L11.5045 17.754L16.5535 20.423C16.7184 20.5103 16.9044 20.5497 17.0906 20.5368C17.2767 20.5239 17.4556 20.4592 17.6068 20.3499C17.7581 20.2407 17.8758 20.0913 17.9466 19.9186C18.0174 19.746 18.0385 19.557 18.0075 19.373L17.0415 13.708L21.1355 9.69399C21.2906 9.54137 21.3917 9.3423 21.4235 9.12699ZM16.1545 13.177C16.0968 13.2335 16.0537 13.3031 16.0288 13.3799C16.0039 13.4567 15.9979 13.5384 16.0115 13.618L17.0215 19.539L11.7375 16.746C11.6656 16.7082 11.5857 16.6884 11.5045 16.6884C11.4233 16.6884 11.3433 16.7082 11.2715 16.746L5.98747 19.54L6.99747 13.618C7.01101 13.5384 7.00507 13.4567 6.98017 13.3799C6.95527 13.3031 6.91214 13.2335 6.85447 13.177L2.57447 8.97999L8.48647 8.11599C8.56693 8.10427 8.64332 8.07309 8.70902 8.02517C8.77471 7.97725 8.82773 7.91403 8.86347 7.84099L11.5045 2.45999L14.1445 7.84199C14.1803 7.91516 14.2335 7.97846 14.2994 8.02639C14.3652 8.07431 14.4418 8.10542 14.5225 8.11699L20.4355 8.97999L16.1545 13.177Z" fill="#3366CC"/>
<path d="M10.5904 2.46733C10.8799 1.59848 12.0881 1.54362 12.4552 2.38265L14.6223 7.33532C14.7957 7.73176 15.2051 7.96851 15.6372 7.94439C17.2994 7.8516 18.5647 8.02594 20.0726 8.15952C21.0036 8.242 21.4273 9.45992 20.71 10.0592L17.0619 13.1072C16.7734 13.3483 16.6445 13.7307 16.7282 14.0972L17.8883 19.178C18.0921 20.0702 17.0896 20.7446 16.3399 20.2198L14.9131 19.221L12.1403 17.3668C11.8076 17.1443 11.3743 17.1416 11.0388 17.36L6.55848 20.2766C5.78849 20.7778 4.80684 20.0626 5.04798 19.176L6.4184 14.1375C6.52356 13.7509 6.38779 13.3388 6.0734 13.0904L1.97227 9.8501C1.26254 9.28934 1.60276 8.14941 2.50373 8.06938L8.26014 7.558C8.65664 7.52278 8.99449 7.25575 9.12035 6.87811L10.5904 2.46733Z" fill="#3366CC"/>
</svg>
