<svg width="23" height="22" viewBox="0 0 23 22" fill="none" xmlns="http://www.w3.org/2000/svg">
<path d="M21.3317 9.12699C21.3509 8.9969 21.3443 8.86428 21.3123 8.73674C21.2802 8.6092 21.2233 8.48923 21.1448 8.38371C21.0663 8.27819 20.9678 8.18919 20.8549 8.1218C20.7419 8.05441 20.6168 8.00996 20.4867 7.99099L14.8357 7.16499L12.3097 2.01799C12.2185 1.86067 12.0875 1.73008 11.93 1.63934C11.7724 1.54859 11.5937 1.50088 11.4119 1.50098C11.23 1.50108 11.0514 1.54899 10.894 1.63991C10.7365 1.73083 10.6057 1.86157 10.5147 2.01899L7.98967 7.16499L2.33867 7.99099C2.15422 8.01779 1.98092 8.0956 1.83834 8.21565C1.69576 8.3357 1.58957 8.49321 1.53175 8.67041C1.47393 8.84761 1.46679 9.03744 1.51113 9.21848C1.55546 9.39952 1.64951 9.56457 1.78267 9.69499L5.87567 13.708L4.90967 19.372C4.87913 19.5558 4.90047 19.7445 4.97128 19.9169C5.04209 20.0893 5.15956 20.2385 5.31051 20.3478C5.46145 20.4571 5.63988 20.5221 5.82575 20.5356C6.01162 20.549 6.19755 20.5104 6.36267 20.424L11.4127 17.754L16.4617 20.423C16.6266 20.5103 16.8126 20.5497 16.9988 20.5368C17.1849 20.5239 17.3638 20.4592 17.515 20.3499C17.6663 20.2407 17.784 20.0913 17.8548 19.9186C17.9256 19.746 17.9467 19.557 17.9157 19.373L16.9497 13.708L21.0437 9.69399C21.1988 9.54137 21.2999 9.3423 21.3317 9.12699ZM16.0627 13.177C16.005 13.2335 15.9619 13.3031 15.937 13.3799C15.9121 13.4567 15.9061 13.5384 15.9197 13.618L16.9297 19.539L11.6457 16.746C11.5738 16.7082 11.4939 16.6884 11.4127 16.6884C11.3315 16.6884 11.2515 16.7082 11.1797 16.746L5.89567 19.54L6.90567 13.618C6.91921 13.5384 6.91327 13.4567 6.88837 13.3799C6.86347 13.3031 6.82034 13.2335 6.76267 13.177L2.48267 8.97999L8.39467 8.11599C8.47513 8.10427 8.55152 8.07309 8.61722 8.02517C8.68291 7.97725 8.73593 7.91403 8.77167 7.84099L11.4127 2.45999L14.0527 7.84199C14.0885 7.91516 14.1417 7.97846 14.2076 8.02639C14.2734 8.07431 14.35 8.10542 14.4307 8.11699L20.3437 8.97999L16.0627 13.177Z" fill="#3366CC"/>
<path d="M10.5904 2.46733C10.8799 1.59848 12.0881 1.54362 12.4552 2.38265L14.6223 7.33532C14.7957 7.73176 15.2051 7.96851 15.6372 7.94439C17.1806 7.85823 18.3818 8.00238 19.7527 8.13037C20.7173 8.22041 21.1192 9.53141 20.3355 10.1008L16.3597 12.9894C16.0092 13.244 15.8626 13.6954 15.9964 14.1074L17.515 18.7812C17.8144 19.7025 16.7599 20.4686 15.9762 19.8992L12.0005 17.0106C11.65 16.756 11.1754 16.756 10.8249 17.0106L6.84915 19.8992C6.06544 20.4686 5.01096 19.7025 5.31031 18.7812L6.82891 14.1074C6.96278 13.6954 6.81612 13.244 6.46564 12.9894L2.15942 9.8607C1.41164 9.31741 1.73803 8.1374 2.65871 8.05561L8.26014 7.558C8.65664 7.52278 8.99449 7.25575 9.12035 6.87811L10.5904 2.46733Z" fill="#3366CC"/>
</svg>
