<svg width="1440" height="910" viewBox="0 0 1440 910" fill="none" xmlns="http://www.w3.org/2000/svg">
<path d="M1284 399.382C1349.82 490.206 1442 223.515 1442 223.515V897.199L0 905V137C0 137 110.5 514.263 262 399.382C374.553 314.034 616.5 769.92 736.5 444.058C854.5 540.868 1073.39 129.524 1114.5 278.828C1147.5 398.673 1247 348.324 1284 399.382Z" fill="#A7BAAA" fill-opacity="0.36"/>
<path d="M158 316.362C92.1836 425.87 0 104.314 0 104.314V916.595L1442 926V0C1442 0 1331.5 454.877 1180 316.362C1067.45 213.456 825.5 763.13 705.5 370.229C587.5 486.955 368.612 -9.01372 327.5 171.007C294.5 315.507 195 254.8 158 316.362Z" fill="#A7BAAA" fill-opacity="0.36"/>
</svg>
