<svg width="625" height="605" viewBox="0 0 625 605" fill="none" xmlns="http://www.w3.org/2000/svg">
<g filter="url(#filter0_d_653_854)">
<rect width="609" height="494" transform="matrix(-1 0 0 1 617 74)" fill="url(#paint0_linear_653_854)"/>
</g>
<g filter="url(#filter1_d_653_854)">
<rect x="54" y="5" width="476" height="563" rx="45" fill="white"/>
</g>
<g filter="url(#filter2_d_653_854)">
<g filter="url(#filter3_d_653_854)">
<rect x="103" y="97" width="377.42" height="368.614" rx="10" fill="#AEE4B6"/>
</g>
<path d="M150.092 160.062L155.708 147.462H158.588L164.222 160.062H161.162L156.554 148.938H157.706L153.08 160.062H150.092ZM152.9 157.362L153.674 155.148H160.154L160.946 157.362H152.9ZM171.055 160.206C170.239 160.206 169.525 160.026 168.913 159.666C168.301 159.306 167.821 158.76 167.473 158.028C167.137 157.284 166.969 156.348 166.969 155.22C166.969 154.08 167.131 153.144 167.455 152.412C167.779 151.68 168.247 151.134 168.859 150.774C169.471 150.414 170.203 150.234 171.055 150.234C171.967 150.234 172.783 150.444 173.503 150.864C174.235 151.272 174.811 151.848 175.231 152.592C175.663 153.336 175.879 154.212 175.879 155.22C175.879 156.24 175.663 157.122 175.231 157.866C174.811 158.61 174.235 159.186 173.503 159.594C172.783 160.002 171.967 160.206 171.055 160.206ZM165.331 163.554V150.378H168.013V152.358L167.959 155.238L168.139 158.1V163.554H165.331ZM170.569 157.902C171.037 157.902 171.451 157.794 171.811 157.578C172.183 157.362 172.477 157.056 172.693 156.66C172.921 156.252 173.035 155.772 173.035 155.22C173.035 154.656 172.921 154.176 172.693 153.78C172.477 153.384 172.183 153.078 171.811 152.862C171.451 152.646 171.037 152.538 170.569 152.538C170.101 152.538 169.681 152.646 169.309 152.862C168.937 153.078 168.643 153.384 168.427 153.78C168.211 154.176 168.103 154.656 168.103 155.22C168.103 155.772 168.211 156.252 168.427 156.66C168.643 157.056 168.937 157.362 169.309 157.578C169.681 157.794 170.101 157.902 170.569 157.902ZM183.483 160.206C182.667 160.206 181.953 160.026 181.341 159.666C180.729 159.306 180.249 158.76 179.901 158.028C179.565 157.284 179.397 156.348 179.397 155.22C179.397 154.08 179.559 153.144 179.883 152.412C180.207 151.68 180.675 151.134 181.287 150.774C181.899 150.414 182.631 150.234 183.483 150.234C184.395 150.234 185.211 150.444 185.931 150.864C186.663 151.272 187.239 151.848 187.659 152.592C188.091 153.336 188.307 154.212 188.307 155.22C188.307 156.24 188.091 157.122 187.659 157.866C187.239 158.61 186.663 159.186 185.931 159.594C185.211 160.002 184.395 160.206 183.483 160.206ZM177.759 163.554V150.378H180.441V152.358L180.387 155.238L180.567 158.1V163.554H177.759ZM182.997 157.902C183.465 157.902 183.879 157.794 184.239 157.578C184.611 157.362 184.905 157.056 185.121 156.66C185.349 156.252 185.463 155.772 185.463 155.22C185.463 154.656 185.349 154.176 185.121 153.78C184.905 153.384 184.611 153.078 184.239 152.862C183.879 152.646 183.465 152.538 182.997 152.538C182.529 152.538 182.109 152.646 181.737 152.862C181.365 153.078 181.071 153.384 180.855 153.78C180.639 154.176 180.531 154.656 180.531 155.22C180.531 155.772 180.639 156.252 180.855 156.66C181.071 157.056 181.365 157.362 181.737 157.578C182.109 157.794 182.529 157.902 182.997 157.902ZM193.445 160.206C192.617 160.206 191.819 160.11 191.051 159.918C190.295 159.714 189.695 159.462 189.251 159.162L190.187 157.146C190.631 157.422 191.153 157.65 191.753 157.83C192.365 157.998 192.965 158.082 193.553 158.082C194.201 158.082 194.657 158.004 194.921 157.848C195.197 157.692 195.335 157.476 195.335 157.2C195.335 156.972 195.227 156.804 195.011 156.696C194.807 156.576 194.531 156.486 194.183 156.426C193.835 156.366 193.451 156.306 193.031 156.246C192.623 156.186 192.209 156.108 191.789 156.012C191.369 155.904 190.985 155.748 190.637 155.544C190.289 155.34 190.007 155.064 189.791 154.716C189.587 154.368 189.485 153.918 189.485 153.366C189.485 152.754 189.659 152.214 190.007 151.746C190.367 151.278 190.883 150.912 191.555 150.648C192.227 150.372 193.031 150.234 193.967 150.234C194.627 150.234 195.299 150.306 195.983 150.45C196.667 150.594 197.237 150.804 197.693 151.08L196.757 153.078C196.289 152.802 195.815 152.616 195.335 152.52C194.867 152.412 194.411 152.358 193.967 152.358C193.343 152.358 192.887 152.442 192.599 152.61C192.311 152.778 192.167 152.994 192.167 153.258C192.167 153.498 192.269 153.678 192.473 153.798C192.689 153.918 192.971 154.014 193.319 154.086C193.667 154.158 194.045 154.224 194.453 154.284C194.873 154.332 195.293 154.41 195.713 154.518C196.133 154.626 196.511 154.782 196.847 154.986C197.195 155.178 197.477 155.448 197.693 155.796C197.909 156.132 198.017 156.576 198.017 157.128C198.017 157.728 197.837 158.262 197.477 158.73C197.117 159.186 196.595 159.546 195.911 159.81C195.239 160.074 194.417 160.206 193.445 160.206ZM217.249 150.234C218.017 150.234 218.695 150.39 219.283 150.702C219.883 151.002 220.351 151.47 220.687 152.106C221.035 152.73 221.209 153.534 221.209 154.518V160.062H218.401V154.95C218.401 154.17 218.239 153.594 217.915 153.222C217.591 152.85 217.135 152.664 216.547 152.664C216.139 152.664 215.773 152.76 215.449 152.952C215.125 153.132 214.873 153.408 214.693 153.78C214.513 154.152 214.423 154.626 214.423 155.202V160.062H211.615V154.95C211.615 154.17 211.453 153.594 211.129 153.222C210.817 152.85 210.367 152.664 209.779 152.664C209.371 152.664 209.005 152.76 208.681 152.952C208.357 153.132 208.105 153.408 207.925 153.78C207.745 154.152 207.655 154.626 207.655 155.202V160.062H204.847V150.378H207.529V153.024L207.025 152.25C207.361 151.59 207.835 151.092 208.447 150.756C209.071 150.408 209.779 150.234 210.571 150.234C211.459 150.234 212.233 150.462 212.893 150.918C213.565 151.362 214.009 152.046 214.225 152.97L213.235 152.7C213.559 151.944 214.075 151.344 214.783 150.9C215.503 150.456 216.325 150.234 217.249 150.234ZM229.666 160.062V158.172L229.486 157.758V154.374C229.486 153.774 229.3 153.306 228.928 152.97C228.568 152.634 228.01 152.466 227.254 152.466C226.738 152.466 226.228 152.55 225.724 152.718C225.232 152.874 224.812 153.09 224.464 153.366L223.456 151.404C223.984 151.032 224.62 150.744 225.364 150.54C226.108 150.336 226.864 150.234 227.632 150.234C229.108 150.234 230.254 150.582 231.07 151.278C231.886 151.974 232.294 153.06 232.294 154.536V160.062H229.666ZM226.714 160.206C225.958 160.206 225.31 160.08 224.77 159.828C224.23 159.564 223.816 159.21 223.528 158.766C223.24 158.322 223.096 157.824 223.096 157.272C223.096 156.696 223.234 156.192 223.51 155.76C223.798 155.328 224.248 154.992 224.86 154.752C225.472 154.5 226.27 154.374 227.254 154.374H229.828V156.012H227.56C226.9 156.012 226.444 156.12 226.192 156.336C225.952 156.552 225.832 156.822 225.832 157.146C225.832 157.506 225.97 157.794 226.246 158.01C226.534 158.214 226.924 158.316 227.416 158.316C227.884 158.316 228.304 158.208 228.676 157.992C229.048 157.764 229.318 157.434 229.486 157.002L229.918 158.298C229.714 158.922 229.342 159.396 228.802 159.72C228.262 160.044 227.566 160.206 226.714 160.206ZM234.835 160.062V150.378H237.643V160.062H234.835ZM236.239 149.028C235.723 149.028 235.303 148.878 234.979 148.578C234.655 148.278 234.493 147.906 234.493 147.462C234.493 147.018 234.655 146.646 234.979 146.346C235.303 146.046 235.723 145.896 236.239 145.896C236.755 145.896 237.175 146.04 237.499 146.328C237.823 146.604 237.985 146.964 237.985 147.408C237.985 147.876 237.823 148.266 237.499 148.578C237.187 148.878 236.767 149.028 236.239 149.028ZM243.507 160.206C242.679 160.206 241.881 160.11 241.113 159.918C240.357 159.714 239.757 159.462 239.313 159.162L240.249 157.146C240.693 157.422 241.215 157.65 241.815 157.83C242.427 157.998 243.027 158.082 243.615 158.082C244.263 158.082 244.719 158.004 244.983 157.848C245.259 157.692 245.397 157.476 245.397 157.2C245.397 156.972 245.289 156.804 245.073 156.696C244.869 156.576 244.593 156.486 244.245 156.426C243.897 156.366 243.513 156.306 243.093 156.246C242.685 156.186 242.271 156.108 241.851 156.012C241.431 155.904 241.047 155.748 240.699 155.544C240.351 155.34 240.069 155.064 239.853 154.716C239.649 154.368 239.547 153.918 239.547 153.366C239.547 152.754 239.721 152.214 240.069 151.746C240.429 151.278 240.945 150.912 241.617 150.648C242.289 150.372 243.093 150.234 244.029 150.234C244.689 150.234 245.361 150.306 246.045 150.45C246.729 150.594 247.299 150.804 247.755 151.08L246.819 153.078C246.351 152.802 245.877 152.616 245.397 152.52C244.929 152.412 244.473 152.358 244.029 152.358C243.405 152.358 242.949 152.442 242.661 152.61C242.373 152.778 242.229 152.994 242.229 153.258C242.229 153.498 242.331 153.678 242.535 153.798C242.751 153.918 243.033 154.014 243.381 154.086C243.729 154.158 244.107 154.224 244.515 154.284C244.935 154.332 245.355 154.41 245.775 154.518C246.195 154.626 246.573 154.782 246.909 154.986C247.257 155.178 247.539 155.448 247.755 155.796C247.971 156.132 248.079 156.576 248.079 157.128C248.079 157.728 247.899 158.262 247.539 158.73C247.179 159.186 246.657 159.546 245.973 159.81C245.301 160.074 244.479 160.206 243.507 160.206ZM258.995 160.206C258.191 160.206 257.471 160.05 256.835 159.738C256.211 159.426 255.725 158.952 255.377 158.316C255.029 157.668 254.855 156.846 254.855 155.85V150.378H257.663V155.436C257.663 156.24 257.831 156.834 258.167 157.218C258.515 157.59 259.001 157.776 259.625 157.776C260.057 157.776 260.441 157.686 260.777 157.506C261.113 157.314 261.377 157.026 261.569 156.642C261.761 156.246 261.857 155.754 261.857 155.166V150.378H264.665V160.062H262.001V157.398L262.487 158.172C262.163 158.844 261.683 159.354 261.047 159.702C260.423 160.038 259.739 160.206 258.995 160.206ZM270.525 160.206C269.697 160.206 268.899 160.11 268.131 159.918C267.375 159.714 266.775 159.462 266.331 159.162L267.267 157.146C267.711 157.422 268.233 157.65 268.833 157.83C269.445 157.998 270.045 158.082 270.633 158.082C271.281 158.082 271.737 158.004 272.001 157.848C272.277 157.692 272.415 157.476 272.415 157.2C272.415 156.972 272.307 156.804 272.091 156.696C271.887 156.576 271.611 156.486 271.263 156.426C270.915 156.366 270.531 156.306 270.111 156.246C269.703 156.186 269.289 156.108 268.869 156.012C268.449 155.904 268.065 155.748 267.717 155.544C267.369 155.34 267.087 155.064 266.871 154.716C266.667 154.368 266.565 153.918 266.565 153.366C266.565 152.754 266.739 152.214 267.087 151.746C267.447 151.278 267.963 150.912 268.635 150.648C269.307 150.372 270.111 150.234 271.047 150.234C271.707 150.234 272.379 150.306 273.063 150.45C273.747 150.594 274.317 150.804 274.773 151.08L273.837 153.078C273.369 152.802 272.895 152.616 272.415 152.52C271.947 152.412 271.491 152.358 271.047 152.358C270.423 152.358 269.967 152.442 269.679 152.61C269.391 152.778 269.247 152.994 269.247 153.258C269.247 153.498 269.349 153.678 269.553 153.798C269.769 153.918 270.051 154.014 270.399 154.086C270.747 154.158 271.125 154.224 271.533 154.284C271.953 154.332 272.373 154.41 272.793 154.518C273.213 154.626 273.591 154.782 273.927 154.986C274.275 155.178 274.557 155.448 274.773 155.796C274.989 156.132 275.097 156.576 275.097 157.128C275.097 157.728 274.917 158.262 274.557 158.73C274.197 159.186 273.675 159.546 272.991 159.81C272.319 160.074 271.497 160.206 270.525 160.206ZM282.769 160.062V158.172L282.589 157.758V154.374C282.589 153.774 282.403 153.306 282.031 152.97C281.671 152.634 281.113 152.466 280.357 152.466C279.841 152.466 279.331 152.55 278.827 152.718C278.335 152.874 277.915 153.09 277.567 153.366L276.559 151.404C277.087 151.032 277.723 150.744 278.467 150.54C279.211 150.336 279.967 150.234 280.735 150.234C282.211 150.234 283.357 150.582 284.173 151.278C284.989 151.974 285.397 153.06 285.397 154.536V160.062H282.769ZM279.817 160.206C279.061 160.206 278.413 160.08 277.873 159.828C277.333 159.564 276.919 159.21 276.631 158.766C276.343 158.322 276.199 157.824 276.199 157.272C276.199 156.696 276.337 156.192 276.613 155.76C276.901 155.328 277.351 154.992 277.963 154.752C278.575 154.5 279.373 154.374 280.357 154.374H282.931V156.012H280.663C280.003 156.012 279.547 156.12 279.295 156.336C279.055 156.552 278.935 156.822 278.935 157.146C278.935 157.506 279.073 157.794 279.349 158.01C279.637 158.214 280.027 158.316 280.519 158.316C280.987 158.316 281.407 158.208 281.779 157.992C282.151 157.764 282.421 157.434 282.589 157.002L283.021 158.298C282.817 158.922 282.445 159.396 281.905 159.72C281.365 160.044 280.669 160.206 279.817 160.206ZM292.167 160.206C291.255 160.206 290.433 160.002 289.701 159.594C288.969 159.174 288.387 158.592 287.955 157.848C287.535 157.104 287.325 156.228 287.325 155.22C287.325 154.2 287.535 153.318 287.955 152.574C288.387 151.83 288.969 151.254 289.701 150.846C290.433 150.438 291.255 150.234 292.167 150.234C292.983 150.234 293.697 150.414 294.309 150.774C294.921 151.134 295.395 151.68 295.731 152.412C296.067 153.144 296.235 154.08 296.235 155.22C296.235 156.348 296.073 157.284 295.749 158.028C295.425 158.76 294.957 159.306 294.345 159.666C293.745 160.026 293.019 160.206 292.167 160.206ZM292.653 157.902C293.109 157.902 293.523 157.794 293.895 157.578C294.267 157.362 294.561 157.056 294.777 156.66C295.005 156.252 295.119 155.772 295.119 155.22C295.119 154.656 295.005 154.176 294.777 153.78C294.561 153.384 294.267 153.078 293.895 152.862C293.523 152.646 293.109 152.538 292.653 152.538C292.185 152.538 291.765 152.646 291.393 152.862C291.021 153.078 290.721 153.384 290.493 153.78C290.277 154.176 290.169 154.656 290.169 155.22C290.169 155.772 290.277 156.252 290.493 156.66C290.721 157.056 291.021 157.362 291.393 157.578C291.765 157.794 292.185 157.902 292.653 157.902ZM295.191 160.062V158.082L295.245 155.202L295.065 152.34V146.706H297.873V160.062H295.191ZM305.08 160.206C304.048 160.206 303.13 159.99 302.326 159.558C301.534 159.126 300.904 158.538 300.436 157.794C299.98 157.038 299.752 156.18 299.752 155.22C299.752 154.248 299.98 153.39 300.436 152.646C300.904 151.89 301.534 151.302 302.326 150.882C303.13 150.45 304.048 150.234 305.08 150.234C306.1 150.234 307.012 150.45 307.816 150.882C308.62 151.302 309.25 151.884 309.706 152.628C310.162 153.372 310.39 154.236 310.39 155.22C310.39 156.18 310.162 157.038 309.706 157.794C309.25 158.538 308.62 159.126 307.816 159.558C307.012 159.99 306.1 160.206 305.08 160.206ZM305.08 157.902C305.548 157.902 305.968 157.794 306.34 157.578C306.712 157.362 307.006 157.056 307.222 156.66C307.438 156.252 307.546 155.772 307.546 155.22C307.546 154.656 307.438 154.176 307.222 153.78C307.006 153.384 306.712 153.078 306.34 152.862C305.968 152.646 305.548 152.538 305.08 152.538C304.612 152.538 304.192 152.646 303.82 152.862C303.448 153.078 303.148 153.384 302.92 153.78C302.704 154.176 302.596 154.656 302.596 155.22C302.596 155.772 302.704 156.252 302.92 156.66C303.148 157.056 303.448 157.362 303.82 157.578C304.192 157.794 304.612 157.902 305.08 157.902ZM315.525 160.206C314.697 160.206 313.899 160.11 313.131 159.918C312.375 159.714 311.775 159.462 311.331 159.162L312.267 157.146C312.711 157.422 313.233 157.65 313.833 157.83C314.445 157.998 315.045 158.082 315.633 158.082C316.281 158.082 316.737 158.004 317.001 157.848C317.277 157.692 317.415 157.476 317.415 157.2C317.415 156.972 317.307 156.804 317.091 156.696C316.887 156.576 316.611 156.486 316.263 156.426C315.915 156.366 315.531 156.306 315.111 156.246C314.703 156.186 314.289 156.108 313.869 156.012C313.449 155.904 313.065 155.748 312.717 155.544C312.369 155.34 312.087 155.064 311.871 154.716C311.667 154.368 311.565 153.918 311.565 153.366C311.565 152.754 311.739 152.214 312.087 151.746C312.447 151.278 312.963 150.912 313.635 150.648C314.307 150.372 315.111 150.234 316.047 150.234C316.707 150.234 317.379 150.306 318.063 150.45C318.747 150.594 319.317 150.804 319.773 151.08L318.837 153.078C318.369 152.802 317.895 152.616 317.415 152.52C316.947 152.412 316.491 152.358 316.047 152.358C315.423 152.358 314.967 152.442 314.679 152.61C314.391 152.778 314.247 152.994 314.247 153.258C314.247 153.498 314.349 153.678 314.553 153.798C314.769 153.918 315.051 154.014 315.399 154.086C315.747 154.158 316.125 154.224 316.533 154.284C316.953 154.332 317.373 154.41 317.793 154.518C318.213 154.626 318.591 154.782 318.927 154.986C319.275 155.178 319.557 155.448 319.773 155.796C319.989 156.132 320.097 156.576 320.097 157.128C320.097 157.728 319.917 158.262 319.557 158.73C319.197 159.186 318.675 159.546 317.991 159.81C317.319 160.074 316.497 160.206 315.525 160.206ZM332.813 150.234C333.581 150.234 334.265 150.39 334.865 150.702C335.477 151.002 335.957 151.47 336.305 152.106C336.653 152.73 336.827 153.534 336.827 154.518V160.062H334.019V154.95C334.019 154.17 333.845 153.594 333.497 153.222C333.161 152.85 332.681 152.664 332.057 152.664C331.613 152.664 331.211 152.76 330.851 152.952C330.503 153.132 330.227 153.414 330.023 153.798C329.831 154.182 329.735 154.674 329.735 155.274V160.062H326.927V150.378H329.609V153.06L329.105 152.25C329.453 151.602 329.951 151.104 330.599 150.756C331.247 150.408 331.985 150.234 332.813 150.234ZM345.312 160.062V158.172L345.132 157.758V154.374C345.132 153.774 344.946 153.306 344.574 152.97C344.214 152.634 343.656 152.466 342.9 152.466C342.384 152.466 341.874 152.55 341.37 152.718C340.878 152.874 340.458 153.09 340.11 153.366L339.102 151.404C339.63 151.032 340.266 150.744 341.01 150.54C341.754 150.336 342.51 150.234 343.278 150.234C344.754 150.234 345.9 150.582 346.716 151.278C347.532 151.974 347.94 153.06 347.94 154.536V160.062H345.312ZM342.36 160.206C341.604 160.206 340.956 160.08 340.416 159.828C339.876 159.564 339.462 159.21 339.174 158.766C338.886 158.322 338.742 157.824 338.742 157.272C338.742 156.696 338.88 156.192 339.156 155.76C339.444 155.328 339.894 154.992 340.506 154.752C341.118 154.5 341.916 154.374 342.9 154.374H345.474V156.012H343.206C342.546 156.012 342.09 156.12 341.838 156.336C341.598 156.552 341.478 156.822 341.478 157.146C341.478 157.506 341.616 157.794 341.892 158.01C342.18 158.214 342.57 158.316 343.062 158.316C343.53 158.316 343.95 158.208 344.322 157.992C344.694 157.764 344.964 157.434 345.132 157.002L345.564 158.298C345.36 158.922 344.988 159.396 344.448 159.72C343.908 160.044 343.212 160.206 342.36 160.206ZM358.837 160.206C358.009 160.206 357.211 160.11 356.443 159.918C355.687 159.714 355.087 159.462 354.643 159.162L355.579 157.146C356.023 157.422 356.545 157.65 357.145 157.83C357.757 157.998 358.357 158.082 358.945 158.082C359.593 158.082 360.049 158.004 360.313 157.848C360.589 157.692 360.727 157.476 360.727 157.2C360.727 156.972 360.619 156.804 360.403 156.696C360.199 156.576 359.923 156.486 359.575 156.426C359.227 156.366 358.843 156.306 358.423 156.246C358.015 156.186 357.601 156.108 357.181 156.012C356.761 155.904 356.377 155.748 356.029 155.544C355.681 155.34 355.399 155.064 355.183 154.716C354.979 154.368 354.877 153.918 354.877 153.366C354.877 152.754 355.051 152.214 355.399 151.746C355.759 151.278 356.275 150.912 356.947 150.648C357.619 150.372 358.423 150.234 359.359 150.234C360.019 150.234 360.691 150.306 361.375 150.45C362.059 150.594 362.629 150.804 363.085 151.08L362.149 153.078C361.681 152.802 361.207 152.616 360.727 152.52C360.259 152.412 359.803 152.358 359.359 152.358C358.735 152.358 358.279 152.442 357.991 152.61C357.703 152.778 357.559 152.994 357.559 153.258C357.559 153.498 357.661 153.678 357.865 153.798C358.081 153.918 358.363 154.014 358.711 154.086C359.059 154.158 359.437 154.224 359.845 154.284C360.265 154.332 360.685 154.41 361.105 154.518C361.525 154.626 361.903 154.782 362.239 154.986C362.587 155.178 362.869 155.448 363.085 155.796C363.301 156.132 363.409 156.576 363.409 157.128C363.409 157.728 363.229 158.262 362.869 158.73C362.509 159.186 361.987 159.546 361.303 159.81C360.631 160.074 359.809 160.206 358.837 160.206ZM369.948 160.206C368.844 160.206 367.872 159.99 367.032 159.558C366.204 159.126 365.562 158.538 365.106 157.794C364.65 157.038 364.422 156.18 364.422 155.22C364.422 154.248 364.644 153.39 365.088 152.646C365.544 151.89 366.162 151.302 366.942 150.882C367.722 150.45 368.604 150.234 369.588 150.234C370.536 150.234 371.388 150.438 372.144 150.846C372.912 151.242 373.518 151.818 373.962 152.574C374.406 153.318 374.628 154.212 374.628 155.256C374.628 155.364 374.622 155.49 374.61 155.634C374.598 155.766 374.586 155.892 374.574 156.012H366.708V154.374H373.098L372.018 154.86C372.018 154.356 371.916 153.918 371.712 153.546C371.508 153.174 371.226 152.886 370.866 152.682C370.506 152.466 370.086 152.358 369.606 152.358C369.126 152.358 368.7 152.466 368.328 152.682C367.968 152.886 367.686 153.18 367.482 153.564C367.278 153.936 367.176 154.38 367.176 154.896V155.328C367.176 155.856 367.29 156.324 367.518 156.732C367.758 157.128 368.088 157.434 368.508 157.65C368.94 157.854 369.444 157.956 370.02 157.956C370.536 157.956 370.986 157.878 371.37 157.722C371.766 157.566 372.126 157.332 372.45 157.02L373.944 158.64C373.5 159.144 372.942 159.534 372.27 159.81C371.598 160.074 370.824 160.206 369.948 160.206ZM388.899 150.234C389.667 150.234 390.345 150.39 390.933 150.702C391.533 151.002 392.001 151.47 392.337 152.106C392.685 152.73 392.859 153.534 392.859 154.518V160.062H390.051V154.95C390.051 154.17 389.889 153.594 389.565 153.222C389.241 152.85 388.785 152.664 388.197 152.664C387.789 152.664 387.423 152.76 387.099 152.952C386.775 153.132 386.523 153.408 386.343 153.78C386.163 154.152 386.073 154.626 386.073 155.202V160.062H383.265V154.95C383.265 154.17 383.103 153.594 382.779 153.222C382.467 152.85 382.017 152.664 381.429 152.664C381.021 152.664 380.655 152.76 380.331 152.952C380.007 153.132 379.755 153.408 379.575 153.78C379.395 154.152 379.305 154.626 379.305 155.202V160.062H376.497V150.378H379.179V153.024L378.675 152.25C379.011 151.59 379.485 151.092 380.097 150.756C380.721 150.408 381.429 150.234 382.221 150.234C383.109 150.234 383.883 150.462 384.543 150.918C385.215 151.362 385.659 152.046 385.875 152.97L384.885 152.7C385.209 151.944 385.725 151.344 386.433 150.9C387.153 150.456 387.975 150.234 388.899 150.234ZM401.316 160.062V158.172L401.136 157.758V154.374C401.136 153.774 400.95 153.306 400.578 152.97C400.218 152.634 399.66 152.466 398.904 152.466C398.388 152.466 397.878 152.55 397.374 152.718C396.882 152.874 396.462 153.09 396.114 153.366L395.106 151.404C395.634 151.032 396.27 150.744 397.014 150.54C397.758 150.336 398.514 150.234 399.282 150.234C400.758 150.234 401.904 150.582 402.72 151.278C403.536 151.974 403.944 153.06 403.944 154.536V160.062H401.316ZM398.364 160.206C397.608 160.206 396.96 160.08 396.42 159.828C395.88 159.564 395.466 159.21 395.178 158.766C394.89 158.322 394.746 157.824 394.746 157.272C394.746 156.696 394.884 156.192 395.16 155.76C395.448 155.328 395.898 154.992 396.51 154.752C397.122 154.5 397.92 154.374 398.904 154.374H401.478V156.012H399.21C398.55 156.012 398.094 156.12 397.842 156.336C397.602 156.552 397.482 156.822 397.482 157.146C397.482 157.506 397.62 157.794 397.896 158.01C398.184 158.214 398.574 158.316 399.066 158.316C399.534 158.316 399.954 158.208 400.326 157.992C400.698 157.764 400.968 157.434 401.136 157.002L401.568 158.298C401.364 158.922 400.992 159.396 400.452 159.72C399.912 160.044 399.216 160.206 398.364 160.206ZM412.371 150.234C413.139 150.234 413.823 150.39 414.423 150.702C415.035 151.002 415.515 151.47 415.863 152.106C416.211 152.73 416.385 153.534 416.385 154.518V160.062H413.577V154.95C413.577 154.17 413.403 153.594 413.055 153.222C412.719 152.85 412.239 152.664 411.615 152.664C411.171 152.664 410.769 152.76 410.409 152.952C410.061 153.132 409.785 153.414 409.581 153.798C409.389 154.182 409.293 154.674 409.293 155.274V160.062H406.485V150.378H409.167V153.06L408.663 152.25C409.011 151.602 409.509 151.104 410.157 150.756C410.805 150.408 411.543 150.234 412.371 150.234ZM424.871 160.062V158.172L424.691 157.758V154.374C424.691 153.774 424.505 153.306 424.133 152.97C423.773 152.634 423.215 152.466 422.459 152.466C421.943 152.466 421.433 152.55 420.929 152.718C420.437 152.874 420.017 153.09 419.669 153.366L418.661 151.404C419.189 151.032 419.825 150.744 420.569 150.54C421.313 150.336 422.069 150.234 422.837 150.234C424.313 150.234 425.459 150.582 426.275 151.278C427.091 151.974 427.499 153.06 427.499 154.536V160.062H424.871ZM421.919 160.206C421.163 160.206 420.515 160.08 419.975 159.828C419.435 159.564 419.021 159.21 418.733 158.766C418.445 158.322 418.301 157.824 418.301 157.272C418.301 156.696 418.439 156.192 418.715 155.76C419.003 155.328 419.453 154.992 420.065 154.752C420.677 154.5 421.475 154.374 422.459 154.374H425.033V156.012H422.765C422.105 156.012 421.649 156.12 421.397 156.336C421.157 156.552 421.037 156.822 421.037 157.146C421.037 157.506 421.175 157.794 421.451 158.01C421.739 158.214 422.129 158.316 422.621 158.316C423.089 158.316 423.509 158.208 423.881 157.992C424.253 157.764 424.523 157.434 424.691 157.002L425.123 158.298C424.919 158.922 424.547 159.396 424.007 159.72C423.467 160.044 422.771 160.206 421.919 160.206Z" fill="#161A41" fill-opacity="0.78"/>
<path d="M156.5 401.46V405.38H154.624V401.46L150.935 395.258H152.594C152.757 395.258 152.885 395.298 152.979 395.377C153.077 395.457 153.158 395.557 153.224 395.678L155.072 399.059C155.179 399.26 155.272 399.449 155.352 399.626C155.436 399.804 155.51 399.981 155.576 400.158C155.636 399.981 155.706 399.804 155.786 399.626C155.865 399.449 155.956 399.26 156.059 399.059L157.9 395.678C157.951 395.576 158.028 395.48 158.131 395.391C158.233 395.303 158.364 395.258 158.523 395.258H160.189L156.5 401.46ZM168.301 396.805H165.249V405.38H163.366V396.805H160.314V395.258H168.301V396.805Z" fill="#161A41" fill-opacity="0.28"/>
<path d="M211.593 405.38H209.717C209.587 405.38 209.482 405.348 209.402 405.282C209.328 405.217 209.267 405.142 209.22 405.058L206.875 401.173C206.838 401.29 206.794 401.39 206.742 401.474L204.495 405.058C204.439 405.138 204.374 405.212 204.299 405.282C204.229 405.348 204.136 405.38 204.019 405.38H202.262L205.622 400.172L202.395 395.258H204.271C204.402 395.258 204.495 395.277 204.551 395.314C204.612 395.347 204.668 395.403 204.719 395.482L207.022 399.192C207.069 399.076 207.125 398.959 207.19 398.842L209.304 395.517C209.356 395.429 209.412 395.363 209.472 395.321C209.533 395.279 209.61 395.258 209.703 395.258H211.502L208.247 400.095L211.593 405.38Z" fill="#161A41" fill-opacity="0.28"/>
<path d="M249.738 405.38H247.848V395.258H249.738V405.38ZM257.394 397.099C257.338 397.197 257.278 397.27 257.212 397.316C257.152 397.358 257.075 397.379 256.981 397.379C256.883 397.379 256.776 397.344 256.659 397.274C256.547 397.2 256.412 397.118 256.253 397.029C256.095 396.941 255.908 396.861 255.693 396.791C255.483 396.717 255.234 396.679 254.944 396.679C254.683 396.679 254.454 396.712 254.258 396.777C254.062 396.838 253.897 396.924 253.761 397.036C253.631 397.148 253.533 397.284 253.467 397.442C253.402 397.596 253.369 397.767 253.369 397.953C253.369 398.191 253.435 398.39 253.565 398.548C253.701 398.707 253.878 398.842 254.097 398.954C254.317 399.066 254.566 399.167 254.846 399.255C255.126 399.344 255.413 399.44 255.707 399.542C256.001 399.64 256.288 399.757 256.568 399.892C256.848 400.023 257.098 400.191 257.317 400.396C257.537 400.597 257.712 400.844 257.842 401.138C257.978 401.432 258.045 401.789 258.045 402.209C258.045 402.667 257.966 403.096 257.807 403.497C257.653 403.894 257.425 404.242 257.121 404.54C256.823 404.834 256.456 405.068 256.022 405.24C255.588 405.408 255.091 405.492 254.531 405.492C254.209 405.492 253.892 405.46 253.579 405.394C253.267 405.334 252.966 405.245 252.676 405.128C252.392 405.012 252.123 404.872 251.871 404.708C251.619 404.545 251.395 404.363 251.199 404.162L251.752 403.259C251.799 403.194 251.86 403.14 251.934 403.098C252.009 403.052 252.088 403.028 252.172 403.028C252.289 403.028 252.415 403.077 252.55 403.175C252.686 403.269 252.847 403.374 253.033 403.49C253.22 403.607 253.437 403.714 253.684 403.812C253.936 403.906 254.237 403.952 254.587 403.952C255.124 403.952 255.539 403.826 255.833 403.574C256.127 403.318 256.274 402.951 256.274 402.475C256.274 402.209 256.207 401.992 256.071 401.824C255.941 401.656 255.766 401.516 255.546 401.404C255.327 401.288 255.077 401.19 254.797 401.11C254.517 401.031 254.233 400.945 253.943 400.851C253.654 400.758 253.369 400.646 253.089 400.515C252.809 400.385 252.56 400.214 252.34 400.004C252.121 399.794 251.944 399.533 251.808 399.22C251.678 398.903 251.612 398.513 251.612 398.051C251.612 397.683 251.685 397.323 251.829 396.973C251.979 396.623 252.193 396.313 252.473 396.042C252.753 395.772 253.099 395.555 253.509 395.391C253.92 395.228 254.391 395.146 254.923 395.146C255.521 395.146 256.071 395.24 256.575 395.426C257.079 395.613 257.509 395.874 257.863 396.21L257.394 397.099Z" fill="#161A41" fill-opacity="0.28"/>
<path d="M293.725 396.805H290.673V405.38H288.79V396.805H285.738V395.258H293.725V396.805ZM302.119 396.805H299.067V405.38H297.184V396.805H294.132V395.258H302.119V396.805Z" fill="#161A41" fill-opacity="0.28"/>
<path d="M335.126 405.38H333.236V395.258H335.126V405.38ZM339.282 396.756V399.752H343.076V401.257H339.282V405.38H337.392V395.258H343.776V396.756H339.282Z" fill="#161A41" fill-opacity="0.28"/>
<path d="M385.411 400.347C385.757 400.347 386.058 400.305 386.314 400.221C386.571 400.133 386.783 400.009 386.951 399.85C387.124 399.687 387.252 399.491 387.336 399.262C387.42 399.029 387.462 398.77 387.462 398.485C387.462 398.215 387.42 397.97 387.336 397.75C387.252 397.531 387.126 397.344 386.958 397.19C386.79 397.036 386.578 396.92 386.321 396.84C386.065 396.756 385.761 396.714 385.411 396.714H384.004V400.347H385.411ZM385.411 395.258C386.088 395.258 386.674 395.338 387.168 395.496C387.663 395.655 388.071 395.877 388.393 396.161C388.715 396.446 388.953 396.787 389.107 397.183C389.266 397.58 389.345 398.014 389.345 398.485C389.345 398.975 389.264 399.426 389.1 399.836C388.937 400.242 388.692 400.592 388.365 400.886C388.039 401.18 387.628 401.409 387.133 401.572C386.643 401.736 386.069 401.817 385.411 401.817H384.004V405.38H382.121V395.258H385.411Z" fill="#161A41" fill-opacity="0.28"/>
<path d="M429.284 397.099C429.228 397.197 429.167 397.27 429.102 397.316C429.041 397.358 428.964 397.379 428.871 397.379C428.773 397.379 428.666 397.344 428.549 397.274C428.437 397.2 428.302 397.118 428.143 397.029C427.984 396.941 427.798 396.861 427.583 396.791C427.373 396.717 427.123 396.679 426.834 396.679C426.573 396.679 426.344 396.712 426.148 396.777C425.952 396.838 425.786 396.924 425.651 397.036C425.52 397.148 425.422 397.284 425.357 397.442C425.292 397.596 425.259 397.767 425.259 397.953C425.259 398.191 425.324 398.39 425.455 398.548C425.59 398.707 425.768 398.842 425.987 398.954C426.206 399.066 426.456 399.167 426.736 399.255C427.016 399.344 427.303 399.44 427.597 399.542C427.891 399.64 428.178 399.757 428.458 399.892C428.738 400.023 428.988 400.191 429.207 400.396C429.426 400.597 429.601 400.844 429.732 401.138C429.867 401.432 429.935 401.789 429.935 402.209C429.935 402.667 429.856 403.096 429.697 403.497C429.543 403.894 429.314 404.242 429.011 404.54C428.712 404.834 428.346 405.068 427.912 405.24C427.478 405.408 426.981 405.492 426.421 405.492C426.099 405.492 425.782 405.46 425.469 405.394C425.156 405.334 424.855 405.245 424.566 405.128C424.281 405.012 424.013 404.872 423.761 404.708C423.509 404.545 423.285 404.363 423.089 404.162L423.642 403.259C423.689 403.194 423.749 403.14 423.824 403.098C423.899 403.052 423.978 403.028 424.062 403.028C424.179 403.028 424.305 403.077 424.44 403.175C424.575 403.269 424.736 403.374 424.923 403.49C425.11 403.607 425.327 403.714 425.574 403.812C425.826 403.906 426.127 403.952 426.477 403.952C427.014 403.952 427.429 403.826 427.723 403.574C428.017 403.318 428.164 402.951 428.164 402.475C428.164 402.209 428.096 401.992 427.961 401.824C427.83 401.656 427.655 401.516 427.436 401.404C427.217 401.288 426.967 401.19 426.687 401.11C426.407 401.031 426.122 400.945 425.833 400.851C425.544 400.758 425.259 400.646 424.979 400.515C424.699 400.385 424.449 400.214 424.23 400.004C424.011 399.794 423.833 399.533 423.698 399.22C423.567 398.903 423.502 398.513 423.502 398.051C423.502 397.683 423.574 397.323 423.719 396.973C423.868 396.623 424.083 396.313 424.363 396.042C424.643 395.772 424.988 395.555 425.399 395.391C425.81 395.228 426.281 395.146 426.813 395.146C427.41 395.146 427.961 395.24 428.465 395.426C428.969 395.613 429.398 395.874 429.753 396.21L429.284 397.099Z" fill="#161A41" fill-opacity="0.28"/>
<rect x="145.755" y="297.687" width="30.9603" height="81.6948" rx="4" fill="#FEFEFE"/>
<rect x="234.214" y="272.724" width="30.9603" height="106.657" rx="4" fill="#FEFEFE"/>
<rect x="366.938" y="293.259" width="30.6017" height="85.5486" rx="4" fill="#FEFEFE"/>
<rect x="189.705" y="273.13" width="31.8767" height="105.678" rx="4" fill="#FEFEFE"/>
<rect x="322.671" y="281.801" width="30.9603" height="97.5799" rx="4" fill="#FEFEFE"/>
<rect x="278.441" y="214.857" width="30.9603" height="164.524" rx="4" fill="#FEFEFE"/>
<rect x="411.567" y="265.581" width="30.6017" height="113.226" rx="4" fill="#FEFEFE"/>
</g>
<path d="M560.47 83.2937C560.777 84.9268 560.956 86.2394 560.881 87.5484C560.807 88.8657 560.478 90.1525 559.812 91.7466L559.808 91.7558L559.803 91.7648C559.131 93.2011 558.467 94.2791 557.544 95.2107C556.623 96.1393 555.47 96.8985 553.861 97.7362L553.798 97.7687L553.729 97.7827C548.797 98.7834 545.3 98.2542 541.263 96.9392C544.093 100.831 545.351 105.882 544.33 111.016C542.407 120.687 533.13 126.993 523.609 125.1C518.546 124.093 514.435 120.971 511.983 116.814L507.052 122.466L506.261 123.372L506.176 122.172L505.653 114.788L505.643 114.654L505.701 114.534L509.087 107.523L509.536 106.592C509.586 105.787 509.69 104.975 509.852 104.161C510.634 100.227 512.633 96.8497 515.371 94.355L515.314 94.1277C515.583 93.9912 515.846 93.8546 516.106 93.7216C518.159 92.0455 520.569 90.8366 523.161 90.2166C527.192 88.3898 531.042 87.1783 536.891 86.6L536.913 86.5974L536.937 86.5972C540.51 86.5792 543.317 86.7066 546.109 87.2309C548.834 87.7428 551.524 88.6315 554.889 90.1088C556.618 88.9367 557.631 87.9799 558.274 86.9862C558.941 85.9556 559.241 84.844 559.485 83.3081L560.47 83.2937Z" fill="white"/>
<path d="M560.47 83.2937L561.453 83.1088L561.297 82.2816L560.455 82.2938L560.47 83.2937ZM560.881 87.5484L561.88 87.6052L561.88 87.6051L560.881 87.5484ZM559.812 91.7466L558.889 91.3612L558.888 91.363L559.812 91.7466ZM559.808 91.7558L560.691 92.2244L560.713 92.1829L560.731 92.1394L559.808 91.7558ZM559.803 91.7648L558.92 91.2962L558.908 91.3184L558.897 91.3411L559.803 91.7648ZM557.544 95.2107L558.254 95.9147L558.254 95.9146L557.544 95.2107ZM553.861 97.7362L553.399 96.8492L553.398 96.8495L553.861 97.7362ZM553.798 97.7687L553.997 98.7488L554.135 98.7208L554.261 98.6554L553.798 97.7687ZM553.729 97.7827L553.531 96.8026L553.53 96.8027L553.729 97.7827ZM541.263 96.9392L541.573 95.9884L538.641 95.0332L540.455 97.5272L541.263 96.9392ZM544.33 111.016L545.311 111.211L545.311 111.211L544.33 111.016ZM523.609 125.1L523.414 126.08L523.414 126.08L523.609 125.1ZM511.983 116.814L512.844 116.306L512.14 115.112L511.229 116.156L511.983 116.814ZM507.052 122.466L506.298 121.808L506.298 121.808L507.052 122.466ZM506.261 123.372L505.263 123.443L505.434 125.842L507.015 124.029L506.261 123.372ZM506.176 122.172L505.178 122.243L505.178 122.243L506.176 122.172ZM505.653 114.788L504.655 114.858L504.655 114.858L505.653 114.788ZM505.643 114.654L504.742 114.221L504.627 114.46L504.646 114.724L505.643 114.654ZM505.701 114.534L504.801 114.1L504.8 114.101L505.701 114.534ZM509.087 107.523L509.987 107.958L509.987 107.957L509.087 107.523ZM509.536 106.592L510.436 107.026L510.521 106.849L510.534 106.654L509.536 106.592ZM509.852 104.161L508.871 103.966L508.871 103.966L509.852 104.161ZM515.371 94.355L516.044 95.0941L516.485 94.6927L516.341 94.1142L515.371 94.355ZM515.314 94.1277L514.861 93.2364L514.152 93.5968L514.344 94.3684L515.314 94.1277ZM516.106 93.7216L516.561 94.6119L516.656 94.5635L516.739 94.4961L516.106 93.7216ZM523.161 90.2166L523.394 91.1892L523.487 91.1669L523.574 91.1274L523.161 90.2166ZM536.891 86.6L536.989 87.5952L537.003 87.5937L536.891 86.6ZM536.913 86.5974L536.904 85.5975L536.853 85.598L536.802 85.6037L536.913 86.5974ZM536.937 86.5972L536.932 85.5972L536.928 85.5973L536.937 86.5972ZM546.109 87.2309L546.294 86.2481L546.294 86.2481L546.109 87.2309ZM554.889 90.1088L554.487 91.0244L554.993 91.2465L555.45 90.9365L554.889 90.1088ZM558.274 86.9862L559.114 87.5294L559.114 87.5294L558.274 86.9862ZM559.485 83.3081L559.471 82.3082L558.63 82.3204L558.498 83.1512L559.485 83.3081ZM560.47 83.2937L559.487 83.4787C559.791 85.0953 559.95 86.3092 559.883 87.4918L560.881 87.5484L561.88 87.6051C561.961 86.1695 561.763 84.7584 561.453 83.1088L560.47 83.2937ZM560.881 87.5484L559.883 87.4917C559.816 88.6664 559.524 89.8403 558.889 91.3612L559.812 91.7466L560.734 92.1321C561.431 90.4646 561.797 89.0649 561.88 87.6052L560.881 87.5484ZM559.812 91.7466L558.888 91.363L558.884 91.3722L559.808 91.7558L560.731 92.1394L560.735 92.1302L559.812 91.7466ZM559.808 91.7558L558.924 91.2872L558.92 91.2962L559.803 91.7648L560.687 92.2334L560.691 92.2244L559.808 91.7558ZM559.803 91.7648L558.897 91.3411C558.252 92.7214 557.646 93.6873 556.834 94.5068L557.544 95.2107L558.254 95.9146C559.288 94.8709 560.011 93.6808 560.709 92.1885L559.803 91.7648ZM557.544 95.2107L556.834 94.5068C556.018 95.3297 554.968 96.0325 553.399 96.8492L553.861 97.7362L554.322 98.6233C555.972 97.7645 557.229 96.949 558.254 95.9147L557.544 95.2107ZM553.861 97.7362L553.398 96.8495L553.336 96.882L553.798 97.7687L554.261 98.6554L554.323 98.6229L553.861 97.7362ZM553.798 97.7687L553.6 96.7885L553.531 96.8026L553.729 97.7827L553.927 98.7629L553.997 98.7488L553.798 97.7687ZM553.729 97.7827L553.53 96.8027C548.803 97.7617 545.484 97.2627 541.573 95.9884L541.263 96.9392L540.954 97.89C545.115 99.2457 548.79 99.8052 553.928 98.7628L553.729 97.7827ZM541.263 96.9392L540.455 97.5272C543.125 101.201 544.314 105.969 543.349 110.821L544.33 111.016L545.311 111.211C546.388 105.795 545.06 100.461 542.072 96.3512L541.263 96.9392ZM544.33 111.016L543.349 110.821C541.531 119.965 532.769 125.901 523.804 124.119L523.609 125.1L523.414 126.08C533.491 128.084 543.283 121.409 545.311 111.211L544.33 111.016ZM523.609 125.1L523.804 124.119C519.035 123.17 515.159 120.23 512.844 116.306L511.983 116.814L511.121 117.322C513.71 121.711 518.058 125.015 523.414 126.08L523.609 125.1ZM511.983 116.814L511.229 116.156L506.298 121.808L507.052 122.466L507.805 123.123L512.736 117.471L511.983 116.814ZM507.052 122.466L506.298 121.808L505.507 122.715L506.261 123.372L507.015 124.029L507.805 123.123L507.052 122.466ZM506.261 123.372L507.258 123.301L507.173 122.101L506.176 122.172L505.178 122.243L505.263 123.443L506.261 123.372ZM506.176 122.172L507.173 122.101L506.65 114.717L505.653 114.788L504.655 114.858L505.178 122.243L506.176 122.172ZM505.653 114.788L506.65 114.718L506.641 114.584L505.643 114.654L504.646 114.724L504.655 114.858L505.653 114.788ZM505.643 114.654L506.545 115.088L506.602 114.968L505.701 114.534L504.8 114.101L504.742 114.221L505.643 114.654ZM505.701 114.534L506.602 114.969L509.987 107.958L509.087 107.523L508.186 107.088L504.801 114.1L505.701 114.534ZM509.087 107.523L509.987 107.957L510.436 107.026L509.536 106.592L508.635 106.157L508.186 107.089L509.087 107.523ZM509.536 106.592L510.534 106.654C510.581 105.893 510.679 105.125 510.832 104.356L509.852 104.161L508.871 103.966C508.7 104.824 508.59 105.68 508.538 106.529L509.536 106.592ZM509.852 104.161L510.832 104.356C511.572 100.637 513.46 97.449 516.044 95.0941L515.371 94.355L514.697 93.6158C511.806 96.2504 509.696 99.8168 508.871 103.966L509.852 104.161ZM515.371 94.355L516.341 94.1142L516.285 93.887L515.314 94.1277L514.344 94.3684L514.4 94.5957L515.371 94.355ZM515.314 94.1277L515.768 95.019C516.033 94.8839 516.313 94.7391 516.561 94.6119L516.106 93.7216L515.651 92.8312C515.379 92.9701 515.132 93.0985 514.861 93.2364L515.314 94.1277ZM516.106 93.7216L516.739 94.4961C518.677 92.9133 520.951 91.7734 523.394 91.1892L523.161 90.2166L522.929 89.244C520.187 89.8997 517.641 91.1776 515.474 92.947L516.106 93.7216ZM523.161 90.2166L523.574 91.1274C527.513 89.3423 531.257 88.1619 536.989 87.5951L536.891 86.6L536.793 85.6048C530.827 86.1947 526.871 87.4373 522.749 89.3058L523.161 90.2166ZM536.891 86.6L537.003 87.5937L537.025 87.5912L536.913 86.5974L536.802 85.6037L536.779 85.6062L536.891 86.6ZM536.913 86.5974L536.922 87.5974L536.946 87.5972L536.937 86.5972L536.928 85.5973L536.904 85.5975L536.913 86.5974ZM536.937 86.5972L536.942 87.5972C540.492 87.5793 543.226 87.7069 545.924 88.2138L546.109 87.2309L546.294 86.2481C543.409 85.7064 540.527 85.5791 536.932 85.5972L536.937 86.5972ZM546.109 87.2309L545.924 88.2138C548.553 88.7076 551.169 89.5675 554.487 91.0244L554.889 90.1088L555.291 89.1931C551.88 87.6955 549.115 86.7781 546.294 86.2481L546.109 87.2309ZM554.889 90.1088L555.45 90.9365C557.229 89.7304 558.366 88.6842 559.114 87.5294L558.274 86.9862L557.434 86.443C556.896 87.2755 556.007 88.143 554.328 89.281L554.889 90.1088ZM558.274 86.9862L559.114 87.5294C559.894 86.3228 560.222 85.0462 560.473 83.4649L559.485 83.3081L558.498 83.1512C558.261 84.6418 557.987 85.5885 557.434 86.4431L558.274 86.9862ZM559.485 83.3081L559.5 84.3079L560.484 84.2936L560.47 83.2937L560.455 82.2938L559.471 82.3082L559.485 83.3081Z" fill="#5E886E"/>
<ellipse cx="527.704" cy="107.509" rx="6.83534" ry="6.94277" transform="rotate(11.2452 527.704 107.509)" fill="#5E886E" stroke="white" stroke-width="2"/>
<path d="M14.3133 575.834C15.2587 577.201 16.0666 578.25 17.0499 579.118C18.0393 579.99 19.1857 580.661 20.7876 581.308L20.7968 581.312L20.8066 581.315C22.3004 581.847 23.534 582.132 24.8456 582.13C26.1531 582.129 27.5037 581.842 29.2311 581.286L29.2979 581.265L29.3567 581.225C33.5356 578.421 35.6177 575.562 37.5199 571.767C38.2988 576.515 41.0066 580.96 45.3758 583.844C53.6052 589.275 64.6118 587.109 69.9585 579.007C72.8014 574.699 73.4713 569.58 72.2387 564.914L79.7248 565.38L80.9251 565.455L80.1316 564.551L75.2475 558.988L75.1593 558.887L75.0334 558.844L67.6669 556.323L66.6889 555.988C66.0811 555.457 65.4306 554.961 64.7383 554.504C61.3904 552.294 57.583 551.342 53.8841 551.535L53.7621 551.335C53.4764 551.43 53.1942 551.521 52.9167 551.613C50.2817 551.895 47.7275 552.759 45.4642 554.167C41.3317 555.749 37.7637 557.635 33.2403 561.389L33.2228 561.403L33.2058 561.42C30.6816 563.948 28.7986 566.034 27.2089 568.388C25.6573 570.686 24.398 573.224 23.0833 576.656C21.0342 577.062 19.6416 577.109 18.483 576.868C17.2814 576.618 16.2795 576.05 15.0156 575.144L14.3133 575.834Z" fill="white"/>
<path d="M14.3133 575.834L13.4909 576.403L13.012 575.711L13.6124 575.121L14.3133 575.834ZM17.0499 579.118L16.3884 579.868L16.3883 579.868L17.0499 579.118ZM20.7876 581.308L21.1621 580.381L21.164 580.382L20.7876 581.308ZM20.7968 581.312L20.5091 582.27L20.464 582.256L20.4204 582.238L20.7968 581.312ZM20.8066 581.315L21.0943 580.357L21.1184 580.364L21.142 580.373L20.8066 581.315ZM24.8456 582.13L24.8469 583.13L24.8469 583.13L24.8456 582.13ZM29.2311 581.286L28.9247 580.334L28.9255 580.334L29.2311 581.286ZM29.2979 581.265L29.8556 582.095L29.7382 582.174L29.6035 582.217L29.2979 581.265ZM29.3567 581.225L28.799 580.395L28.7995 580.395L29.3567 581.225ZM37.5199 571.767L36.6259 571.319L38.0075 568.562L38.5067 571.605L37.5199 571.767ZM45.3758 583.844L44.825 584.679L44.825 584.679L45.3758 583.844ZM69.9585 579.007L70.7932 579.558L70.7932 579.558L69.9585 579.007ZM72.2387 564.914L71.2719 565.169L70.9181 563.83L72.3009 563.916L72.2387 564.914ZM79.7248 565.38L79.787 564.382L79.7871 564.382L79.7248 565.38ZM80.9251 565.455L81.6766 564.795L83.2632 566.603L80.8629 566.453L80.9251 565.455ZM80.1316 564.551L80.8831 563.891L80.8831 563.891L80.1316 564.551ZM75.2475 558.988L75.9985 558.328L75.999 558.328L75.2475 558.988ZM75.1593 558.887L75.4845 557.942L75.7352 558.028L75.9103 558.227L75.1593 558.887ZM75.0334 558.844L75.3573 557.898L75.3586 557.899L75.0334 558.844ZM67.6669 556.323L67.3431 557.269L67.3426 557.269L67.6669 556.323ZM66.6889 555.988L66.3646 556.933L66.1792 556.87L66.0315 556.741L66.6889 555.988ZM64.7383 554.504L65.2891 553.669L65.2891 553.669L64.7383 554.504ZM53.8841 551.535L53.9363 552.534L53.3411 552.565L53.0306 552.056L53.8841 551.535ZM53.7621 551.335L53.4469 550.386L54.2014 550.136L54.6156 550.814L53.7621 551.335ZM52.9167 551.613L53.23 552.563L53.1288 552.596L53.023 552.607L52.9167 551.613ZM45.4642 554.167L45.9924 555.016L45.9112 555.066L45.8218 555.101L45.4642 554.167ZM33.2403 561.389L33.879 562.158L33.8687 562.167L33.2403 561.389ZM33.2228 561.403L32.518 560.694L32.5545 560.657L32.5944 560.625L33.2228 561.403ZM33.2058 561.42L32.4981 560.713L32.501 560.71L33.2058 561.42ZM27.2089 568.388L26.3802 567.829L26.3802 567.829L27.2089 568.388ZM23.0833 576.656L24.0171 577.014L23.8194 577.529L23.2775 577.637L23.0833 576.656ZM18.483 576.868L18.2791 577.847L18.2791 577.847L18.483 576.868ZM15.0156 575.144L14.3147 574.43L14.9147 573.841L15.5983 574.331L15.0156 575.144ZM14.3133 575.834L15.1357 575.265C16.0715 576.618 16.8232 577.584 17.7114 578.368L17.0499 579.118L16.3883 579.868C15.31 578.916 14.4458 577.783 13.4909 576.403L14.3133 575.834ZM17.0499 579.118L17.7114 578.368C18.5938 579.146 19.6339 579.764 21.1621 580.381L20.7876 581.308L20.4131 582.235C18.7375 581.559 17.4849 580.835 16.3884 579.868L17.0499 579.118ZM20.7876 581.308L21.164 580.382L21.1733 580.385L20.7968 581.312L20.4204 582.238L20.4112 582.235L20.7876 581.308ZM20.7968 581.312L21.0846 580.354L21.0943 580.357L20.8066 581.315L20.5189 582.273L20.5091 582.27L20.7968 581.312ZM20.8066 581.315L21.142 580.373C22.5775 580.884 23.6905 581.132 24.8443 581.13L24.8456 582.13L24.8469 583.13C23.3774 583.132 22.0232 582.809 20.4712 582.257L20.8066 581.315ZM24.8456 582.13L24.8442 581.13C26.0029 581.129 27.2408 580.876 28.9247 580.334L29.2311 581.286L29.5374 582.238C27.7667 582.808 26.3033 583.128 24.8469 583.13L24.8456 582.13ZM29.2311 581.286L28.9255 580.334L28.9923 580.313L29.2979 581.265L29.6035 582.217L29.5367 582.238L29.2311 581.286ZM29.2979 581.265L28.7402 580.435L28.799 580.395L29.3567 581.225L29.9144 582.055L29.8556 582.095L29.2979 581.265ZM29.3567 581.225L28.7995 580.395C32.8043 577.708 34.7826 574.996 36.6259 571.319L37.5199 571.767L38.4138 572.215C36.4528 576.127 34.267 579.135 29.9139 582.056L29.3567 581.225ZM37.5199 571.767L38.5067 571.605C39.2419 576.087 41.7977 580.284 45.9267 583.009L45.3758 583.844L44.825 584.679C40.2156 581.637 37.3556 576.943 36.533 571.929L37.5199 571.767ZM45.3758 583.844L45.9266 583.009C53.7074 588.144 64.0894 586.085 69.1239 578.456L69.9585 579.007L70.7932 579.558C65.1341 588.133 53.5031 590.405 44.825 584.679L45.3758 583.844ZM69.9585 579.007L69.1239 578.456C71.8019 574.398 72.4356 569.575 71.2719 565.169L72.2387 564.914L73.2056 564.659C74.507 569.585 73.801 575 70.7932 579.558L69.9585 579.007ZM72.2387 564.914L72.3009 563.916L79.787 564.382L79.7248 565.38L79.6627 566.378L72.1766 565.912L72.2387 564.914ZM79.7248 565.38L79.7871 564.382L80.9873 564.457L80.9251 565.455L80.8629 566.453L79.6626 566.378L79.7248 565.38ZM80.9251 565.455L80.1736 566.115L79.3801 565.211L80.1316 564.551L80.8831 563.891L81.6766 564.795L80.9251 565.455ZM80.1316 564.551L79.3801 565.211L74.4961 559.648L75.2475 558.988L75.999 558.328L80.8831 563.891L80.1316 564.551ZM75.2475 558.988L74.4965 559.648L74.4083 559.548L75.1593 558.887L75.9103 558.227L75.9985 558.328L75.2475 558.988ZM75.1593 558.887L74.8341 559.833L74.7082 559.79L75.0334 558.844L75.3586 557.899L75.4845 557.942L75.1593 558.887ZM75.0334 558.844L74.7096 559.79L67.3431 557.269L67.6669 556.323L67.9907 555.377L75.3573 557.898L75.0334 558.844ZM67.6669 556.323L67.3426 557.269L66.3646 556.933L66.6889 555.988L67.0133 555.042L67.9913 555.377L67.6669 556.323ZM66.6889 555.988L66.0315 556.741C65.4569 556.24 64.842 555.77 64.1875 555.338L64.7383 554.504L65.2891 553.669C66.0192 554.151 66.7053 554.675 67.3463 555.234L66.6889 555.988ZM64.7383 554.504L64.1875 555.338C61.0229 553.25 57.4278 552.351 53.9363 552.534L53.8841 551.535L53.8319 550.537C57.7382 550.332 61.758 551.339 65.2891 553.669L64.7383 554.504ZM53.8841 551.535L53.0306 552.056L52.9086 551.856L53.7621 551.335L54.6156 550.814L54.7376 551.014L53.8841 551.535ZM53.7621 551.335L54.0773 552.284C53.7946 552.378 53.4952 552.475 53.23 552.563L52.9167 551.613L52.6035 550.663C52.8933 550.568 53.1583 550.482 53.4469 550.386L53.7621 551.335ZM52.9167 551.613L53.023 552.607C50.5346 552.873 48.1251 553.689 45.9924 555.016L45.4642 554.167L44.936 553.318C47.3299 551.829 50.0288 550.916 52.8104 550.619L52.9167 551.613ZM45.4642 554.167L45.8218 555.101C41.7836 556.647 38.3121 558.48 33.8789 562.158L33.2403 561.389L32.6017 560.619C37.2153 556.791 40.8798 554.851 45.1067 553.233L45.4642 554.167ZM33.2403 561.389L33.8687 562.167L33.8511 562.181L33.2228 561.403L32.5944 560.625L32.612 560.611L33.2403 561.389ZM33.2228 561.403L33.9275 562.112L33.9105 562.129L33.2058 561.42L32.501 560.71L32.518 560.694L33.2228 561.403ZM33.2058 561.42L33.9134 562.126C31.4053 564.638 29.5744 566.672 28.0377 568.948L27.2089 568.388L26.3802 567.829C28.0227 565.396 29.958 563.257 32.4982 560.713L33.2058 561.42ZM27.2089 568.388L28.0377 568.948C26.5408 571.165 25.3137 573.629 24.0171 577.014L23.0833 576.656L22.1495 576.298C23.4823 572.819 24.7737 570.208 26.3802 567.829L27.2089 568.388ZM23.0833 576.656L23.2775 577.637C21.169 578.054 19.6256 578.127 18.2791 577.847L18.483 576.868L18.6869 575.889C19.6576 576.091 20.8994 576.069 22.889 575.675L23.0833 576.656ZM18.483 576.868L18.2791 577.847C16.8722 577.554 15.734 576.889 14.4329 575.956L15.0156 575.144L15.5983 574.331C16.8249 575.211 17.6906 575.681 18.687 575.889L18.483 576.868ZM15.0156 575.144L15.7165 575.857L15.0142 576.547L14.3133 575.834L13.6124 575.121L14.3147 574.43L15.0156 575.144Z" fill="#5E886E"/>
<ellipse cx="6.83534" cy="6.94277" rx="6.83534" ry="6.94277" transform="matrix(-0.550801 0.834636 0.834636 0.550801 52.5391 560.025)" fill="#5E886E" stroke="white" stroke-width="2"/>
<path d="M464.325 36.511V38.8435" stroke="#4B4B4B" stroke-width="1.40417" stroke-miterlimit="10" stroke-linecap="round"/>
<path d="M464.339 33.4009C461.786 33.4009 459.718 35.4883 459.718 38.066V39.537C459.718 40.0133 459.524 40.7278 459.281 41.134L458.4 42.619C457.859 43.5366 458.234 44.5593 459.233 44.8955C462.549 46.0093 466.136 46.0093 469.452 44.8955C470.389 44.5803 470.791 43.4736 470.285 42.619L469.404 41.134C469.161 40.7278 468.967 40.0063 468.967 39.537V38.066C468.96 35.5023 466.878 33.4009 464.339 33.4009Z" stroke="#4B4B4B" stroke-width="1.40417" stroke-miterlimit="10" stroke-linecap="round"/>
<path d="M466.636 45.1829C466.636 46.4647 465.596 47.5154 464.326 47.5154C463.695 47.5154 463.112 47.2492 462.696 46.829C462.279 46.4087 462.016 45.8203 462.016 45.1829" stroke="#4B4B4B" stroke-width="1.40417" stroke-miterlimit="10"/>
<circle cx="469.5" cy="34.5" r="2.5" fill="#80C37A"/>
<path d="M493.753 31V30.5C493.477 30.5 493.253 30.7239 493.253 31H493.753ZM497.247 31H497.747C497.747 30.7239 497.523 30.5 497.247 30.5V31ZM497.247 48V48.5C497.523 48.5 497.747 48.2761 497.747 48H497.247ZM493.753 48H493.253C493.253 48.2761 493.477 48.5 493.753 48.5V48ZM504 37.7534H504.5C504.5 37.4773 504.276 37.2534 504 37.2534V37.7534ZM504 41.2466V41.7466C504.133 41.7466 504.26 41.6939 504.354 41.6001C504.447 41.5064 504.5 41.3792 504.5 41.2466H504ZM487 41.2466H486.5C486.5 41.5227 486.724 41.7466 487 41.7466L487 41.2466ZM487 37.7534L487 37.2534C486.867 37.2534 486.74 37.3061 486.646 37.3999C486.553 37.4936 486.5 37.6208 486.5 37.7534H487ZM500.275 32.2546L500.629 31.901C500.434 31.7066 500.119 31.7056 499.924 31.899L500.275 32.2546ZM502.745 34.7246L503.101 35.0761C503.294 34.8805 503.293 34.5655 503.099 34.3711L502.745 34.7246ZM490.725 46.7454L490.371 47.099C490.566 47.2935 490.881 47.2943 491.076 47.1008L490.725 46.7454ZM488.255 44.2754L487.899 43.9237C487.706 44.1192 487.706 44.4344 487.901 44.6289L488.255 44.2754ZM502.745 44.2754L503.099 44.6289C503.292 44.4363 503.295 44.1248 503.106 43.9285L502.745 44.2754ZM500.275 46.7454L499.919 47.096C500.012 47.1911 500.14 47.2449 500.273 47.2454C500.407 47.246 500.535 47.1933 500.629 47.099L500.275 46.7454ZM488.255 34.7246L487.901 34.3711C487.807 34.4648 487.755 34.592 487.755 34.7246C487.755 34.8572 487.807 34.9844 487.901 35.0782L488.255 34.7246ZM490.725 32.2546L491.078 31.901C490.883 31.7058 490.566 31.7058 490.371 31.901L490.725 32.2546ZM501.134 41.2466V40.7466H500.775L500.66 41.0867L501.134 41.2466ZM500.725 42.1781L500.287 41.9377L500.11 42.2602L500.365 42.525L500.725 42.1781ZM498.178 44.6131L498.535 44.2625L498.282 44.0053L497.958 44.1642L498.178 44.6131ZM497.247 44.9742L497.107 44.4941L496.747 44.599V44.9742H497.247ZM493.753 44.901H494.253V44.5421L493.913 44.4273L493.753 44.901ZM492.938 44.5543L493.169 44.1105L492.845 43.9428L492.587 44.1989L492.938 44.5543ZM490.446 42.0616L490.801 42.4134L491.057 42.1546L490.889 41.8313L490.446 42.0616ZM490.099 41.2466L490.573 41.0867L490.458 40.7466H490.099L490.099 41.2466ZM490.026 37.7534V38.2534H490.401L490.506 37.8932L490.026 37.7534ZM490.375 36.8455L490.825 37.0637L490.981 36.7435L490.729 36.4919L490.375 36.8455ZM492.772 34.3024L492.419 34.6559L492.687 34.9238L493.017 34.7385L492.772 34.3024ZM493.753 33.8661L493.913 34.3398L494.253 34.2251V33.8661H493.753ZM497.247 33.7929H496.747V34.1682L497.107 34.273L497.247 33.7929ZM498.295 34.2128L498.064 34.6566L498.387 34.8242L498.646 34.5684L498.295 34.2128ZM500.787 36.7055L500.432 36.354L500.176 36.6128L500.343 36.9358L500.787 36.7055ZM501.207 37.7534L500.727 37.8932L500.832 38.2534H501.207V37.7534ZM493.753 31V31.5H497.247V31V30.5H493.753V31ZM497.247 48V47.5H493.753V48V48.5H497.247V48ZM504 37.7534H503.5V41.2466H504H504.5V37.7534H504ZM487 41.2466H487.5V37.7534H487H486.5V41.2466H487ZM500.275 32.2546L499.922 32.6081L502.392 35.0782L502.745 34.7246L503.099 34.3711L500.629 31.901L500.275 32.2546ZM490.725 46.7454L491.078 46.3919L488.608 43.9218L488.255 44.2754L487.901 44.6289L490.371 47.099L490.725 46.7454ZM502.745 44.2754L502.392 43.9218L499.922 46.3919L500.275 46.7454L500.629 47.099L503.099 44.6289L502.745 44.2754ZM488.255 34.7246L488.608 35.0782L491.078 32.6081L490.725 32.2546L490.371 31.901L487.901 34.3711L488.255 34.7246ZM501.134 41.2466L500.66 41.0867C500.56 41.3828 500.435 41.6674 500.287 41.9377L500.725 42.1781L501.164 42.4184C501.34 42.0971 501.489 41.7588 501.608 41.4065L501.134 41.2466ZM498.178 44.6131L497.958 44.1642C497.686 44.2975 497.402 44.4082 497.107 44.4941L497.247 44.9742L497.386 45.4543C497.737 45.3521 498.076 45.2204 498.398 45.0619L498.178 44.6131ZM493.753 44.901L493.913 44.4273C493.656 44.3403 493.407 44.2342 493.169 44.1105L492.938 44.5543L492.708 44.9981C492.991 45.1451 493.287 45.2713 493.594 45.3748L493.753 44.901ZM490.446 42.0616L490.889 41.8313C490.766 41.593 490.66 41.3442 490.573 41.0867L490.099 41.2466L489.625 41.4065C489.729 41.7129 489.855 42.0087 490.002 42.292L490.446 42.0616ZM490.026 37.7534L490.506 37.8932C490.59 37.6059 490.697 37.3287 490.825 37.0637L490.375 36.8455L489.926 36.6272C489.773 36.9423 489.645 37.272 489.546 37.6137L490.026 37.7534ZM492.772 34.3024L493.017 34.7385C493.301 34.5793 493.601 34.4454 493.913 34.3398L493.753 33.8661L493.594 33.3924C493.221 33.5179 492.865 33.6771 492.528 33.8663L492.772 34.3024ZM497.247 33.7929L497.107 34.273C497.441 34.3702 497.761 34.4992 498.064 34.6566L498.295 34.2128L498.525 33.769C498.164 33.5819 497.783 33.4285 497.386 33.3129L497.247 33.7929ZM500.787 36.7055L500.343 36.9358C500.501 37.2391 500.63 37.5594 500.727 37.8932L501.207 37.7534L501.687 37.6137C501.572 37.2166 501.418 36.8357 501.231 36.4752L500.787 36.7055ZM493.753 33.8661H494.253V31H493.753H493.253V33.8661H493.753ZM497.247 31H496.747V33.7929H497.247H497.747V31H497.247ZM490.725 32.2546L490.371 32.6081L492.419 34.6559L492.772 34.3024L493.126 33.9488L491.078 31.901L490.725 32.2546ZM490.375 36.8455L490.729 36.4919L488.608 34.3711L488.255 34.7246L487.901 35.0782L490.022 37.199L490.375 36.8455ZM498.295 34.2128L498.646 34.5684L500.627 32.6102L500.275 32.2546L499.924 31.899L497.943 33.8572L498.295 34.2128ZM502.745 34.7246L502.39 34.3731L500.432 36.354L500.787 36.7055L501.143 37.057L503.101 35.0761L502.745 34.7246ZM501.207 37.7534V38.2534L504 38.2534V37.7534V37.2534L501.207 37.2534V37.7534ZM504 41.2466V40.7466L501.134 40.7466V41.2466V41.7466L504 41.7466V41.2466ZM500.725 42.1781L500.365 42.525L502.385 44.6223L502.745 44.2754L503.106 43.9285L501.085 41.8312L500.725 42.1781ZM500.275 46.7454L500.632 46.3948L498.535 44.2625L498.178 44.6131L497.822 44.9637L499.919 47.096L500.275 46.7454ZM497.247 44.9742H496.747V48H497.247H497.747V44.9742H497.247ZM493.753 48H494.253V44.901H493.753H493.253V48H493.753ZM492.938 44.5543L492.587 44.1989L490.373 46.3901L490.725 46.7454L491.076 47.1008L493.29 44.9097L492.938 44.5543ZM488.255 44.2754L488.61 44.6271L490.801 42.4134L490.446 42.0616L490.09 41.7099L487.899 43.9237L488.255 44.2754ZM490.099 41.2466L490.099 40.7466L487 40.7466L487 41.2466L487 41.7466L490.099 41.7466L490.099 41.2466ZM487 37.7534L487 38.2534L490.026 38.2534V37.7534V37.2534L487 37.2534L487 37.7534ZM497.913 38.9864L497.422 39.0845C497.637 40.1592 496.945 41.1694 495.882 41.3529L495.967 41.8456L496.052 42.3383C497.677 42.0579 498.727 40.5079 498.403 38.8883L497.913 38.9864ZM495.967 41.8456L495.882 41.3529C494.808 41.5383 493.752 40.813 493.535 39.7284L493.045 39.8265L492.554 39.9246C492.877 41.5343 494.437 42.617 496.052 42.3383L495.967 41.8456ZM493.045 39.8265L493.535 39.7284C493.32 38.6538 494.012 37.6436 495.076 37.46L494.991 36.9673L494.906 36.4746C493.281 36.755 492.23 38.3051 492.554 39.9246L493.045 39.8265ZM494.991 36.9673L495.076 37.46C496.15 37.2747 497.205 38 497.422 39.0845L497.913 38.9864L498.403 38.8883C498.081 37.2787 496.52 36.196 494.906 36.4746L494.991 36.9673Z" fill="#4B4B4B"/>
<path d="M461.292 407.2L452.431 398.34L449.725 401.044C446.957 403.816 445.571 405.2 444.082 404.874C442.592 404.547 441.915 402.707 440.56 399.033L436.045 386.77C433.342 379.437 431.988 375.772 433.878 373.882C435.768 371.992 439.435 373.342 446.77 376.047L459.033 380.56C462.707 381.915 464.545 382.592 464.874 384.081C465.202 385.571 463.816 386.955 461.044 389.724L458.34 392.431L467.2 401.292C468.118 402.21 468.577 402.669 468.789 403.182C469.07 403.863 469.07 404.628 468.789 405.312C468.577 405.823 468.118 406.282 467.2 407.2C466.282 408.118 465.823 408.577 465.31 408.789C464.628 409.07 463.862 409.07 463.18 408.789C462.669 408.577 462.212 408.118 461.292 407.2Z" fill="#233527"/>
<defs>
<filter id="filter0_d_653_854" x="0" y="70" width="625" height="510" filterUnits="userSpaceOnUse" color-interpolation-filters="sRGB">
<feFlood flood-opacity="0" result="BackgroundImageFix"/>
<feColorMatrix in="SourceAlpha" type="matrix" values="0 0 0 0 0 0 0 0 0 0 0 0 0 0 0 0 0 0 127 0" result="hardAlpha"/>
<feMorphology radius="4" operator="dilate" in="SourceAlpha" result="effect1_dropShadow_653_854"/>
<feOffset dy="4"/>
<feGaussianBlur stdDeviation="2"/>
<feComposite in2="hardAlpha" operator="out"/>
<feColorMatrix type="matrix" values="0 0 0 0 0.12549 0 0 0 0 0.368627 0 0 0 0 0.188235 0 0 0 0.25 0"/>
<feBlend mode="normal" in2="BackgroundImageFix" result="effect1_dropShadow_653_854"/>
<feBlend mode="normal" in="SourceGraphic" in2="effect1_dropShadow_653_854" result="shape"/>
</filter>
<filter id="filter1_d_653_854" x="45" y="0" width="494" height="581" filterUnits="userSpaceOnUse" color-interpolation-filters="sRGB">
<feFlood flood-opacity="0" result="BackgroundImageFix"/>
<feColorMatrix in="SourceAlpha" type="matrix" values="0 0 0 0 0 0 0 0 0 0 0 0 0 0 0 0 0 0 127 0" result="hardAlpha"/>
<feMorphology radius="5" operator="dilate" in="SourceAlpha" result="effect1_dropShadow_653_854"/>
<feOffset dy="4"/>
<feGaussianBlur stdDeviation="2"/>
<feComposite in2="hardAlpha" operator="out"/>
<feColorMatrix type="matrix" values="0 0 0 0 0 0 0 0 0 0 0 0 0 0 0 0 0 0 0.25 0"/>
<feBlend mode="normal" in2="BackgroundImageFix" result="effect1_dropShadow_653_854"/>
<feBlend mode="normal" in="SourceGraphic" in2="effect1_dropShadow_653_854" result="shape"/>
</filter>
<filter id="filter2_d_653_854" x="98" y="96" width="387.421" height="378.614" filterUnits="userSpaceOnUse" color-interpolation-filters="sRGB">
<feFlood flood-opacity="0" result="BackgroundImageFix"/>
<feColorMatrix in="SourceAlpha" type="matrix" values="0 0 0 0 0 0 0 0 0 0 0 0 0 0 0 0 0 0 127 0" result="hardAlpha"/>
<feOffset dy="4"/>
<feGaussianBlur stdDeviation="2.5"/>
<feComposite in2="hardAlpha" operator="out"/>
<feColorMatrix type="matrix" values="0 0 0 0 0 0 0 0 0 0 0 0 0 0 0 0 0 0 0.25 0"/>
<feBlend mode="normal" in2="BackgroundImageFix" result="effect1_dropShadow_653_854"/>
<feBlend mode="normal" in="SourceGraphic" in2="effect1_dropShadow_653_854" result="shape"/>
</filter>
<filter id="filter3_d_653_854" x="88.3" y="97" width="406.821" height="410.314" filterUnits="userSpaceOnUse" color-interpolation-filters="sRGB">
<feFlood flood-opacity="0" result="BackgroundImageFix"/>
<feColorMatrix in="SourceAlpha" type="matrix" values="0 0 0 0 0 0 0 0 0 0 0 0 0 0 0 0 0 0 127 0" result="hardAlpha"/>
<feOffset dy="27"/>
<feGaussianBlur stdDeviation="7.35"/>
<feComposite in2="hardAlpha" operator="out"/>
<feColorMatrix type="matrix" values="0 0 0 0 0 0 0 0 0 0 0 0 0 0 0 0 0 0 0.05 0"/>
<feBlend mode="normal" in2="BackgroundImageFix" result="effect1_dropShadow_653_854"/>
<feBlend mode="normal" in="SourceGraphic" in2="effect1_dropShadow_653_854" result="shape"/>
</filter>
<linearGradient id="paint0_linear_653_854" x1="305" y1="184.5" x2="-56.5" y2="566" gradientUnits="userSpaceOnUse">
<stop offset="0.134615" stop-color="#80C37A"/>
<stop offset="0.416387" stop-color="#609E6B"/>
<stop offset="0.586538" stop-color="#609E81"/>
<stop offset="0.980769" stop-color="#426F72"/>
</linearGradient>
</defs>
</svg>
